STARTFONT 2.1
COMMENT
COMMENT Converted from OpenType font "Patriot-Regular.otf" by "otf2bdf 3.0".
COMMENT
FONT -FreeType-Patriot-Medium-R-Normal--25-180-100-100-P-122-ISO10646-1
SIZE 18 100 100
FONTBOUNDINGBOX 40 33 -9 -7
STARTPROPERTIES 19
FOUNDRY "FreeType"
FAMILY_NAME "Patriot"
WEIGHT_NAME "Medium"
SLANT "R"
SETWIDTH_NAME "Normal"
ADD_STYLE_NAME ""
PIXEL_SIZE 25
POINT_SIZE 180
RESOLUTION_X 100
RESOLUTION_Y 100
SPACING "P"
AVERAGE_WIDTH 122
CHARSET_REGISTRY "ISO10646"
CHARSET_ENCODING "1"
FONT_ASCENT 25
FONT_DESCENT 5
COPYRIGHT "Copyright © 2020 by Behalf Studio. All rights reserved."
_OTF_FONTFILE "Patriot-Regular.otf"
_OTF_PSNAME "Patriot-Regular"
ENDPROPERTIES
CHARS 426
STARTCHAR 0020
ENCODING 32
SWIDTH 360 0
DWIDTH 9 0
BBX 0 0 0 0
BITMAP
ENDCHAR
STARTCHAR 0021
ENCODING 33
SWIDTH 240 0
DWIDTH 6 0
BBX 4 18 1 0
BITMAP
60
60
60
60
60
60
60
60
60
60
60
60
00
00
00
70
F0
70
ENDCHAR
STARTCHAR 0022
ENCODING 34
SWIDTH 280 0
DWIDTH 7 0
BBX 5 6 1 12
BITMAP
C8
C8
C8
C8
C8
C8
ENDCHAR
STARTCHAR 0023
ENCODING 35
SWIDTH 600 0
DWIDTH 15 0
BBX 14 18 1 0
BITMAP
0C30
0C30
0C30
0C30
0C20
0C60
7FFC
7FFC
1860
1860
1860
FFF8
FFF8
18C0
30C0
30C0
30C0
30C0
ENDCHAR
STARTCHAR 0024
ENCODING 36
SWIDTH 520 0
DWIDTH 13 0
BBX 10 22 2 -2
BITMAP
0C00
0C00
1E00
7F00
FF80
EDC0
EDC0
EC00
7C00
7C00
1E00
0F00
0F80
0DC0
0CC0
CCC0
CCC0
EDC0
7F80
3F00
0C00
0C00
ENDCHAR
STARTCHAR 0025
ENCODING 37
SWIDTH 840 0
DWIDTH 21 0
BBX 20 18 1 0
BITMAP
1E0180
7F0300
638300
C18600
C18C00
E18C00
731800
3F3000
006000
006000
00C780
018FE0
019C60
031870
061830
061860
0C0EE0
1807C0
ENDCHAR
STARTCHAR 0026
ENCODING 38
SWIDTH 640 0
DWIDTH 16 0
BBX 14 18 1 0
BITMAP
0F00
1FC0
39E0
70E0
6040
6000
7000
3800
1FFC
3FFC
7038
6038
E038
E030
6070
70E0
3FE0
1F80
ENDCHAR
STARTCHAR 0027
ENCODING 39
SWIDTH 160 0
DWIDTH 4 0
BBX 2 6 1 12
BITMAP
C0
C0
C0
C0
C0
C0
ENDCHAR
STARTCHAR 0028
ENCODING 40
SWIDTH 320 0
DWIDTH 8 0
BBX 6 23 1 -3
BITMAP
08
1C
18
30
30
60
60
60
40
C0
C0
C0
C0
C0
40
60
60
60
30
30
18
18
0C
ENDCHAR
STARTCHAR 0029
ENCODING 41
SWIDTH 320 0
DWIDTH 8 0
BBX 6 23 1 -3
BITMAP
40
60
60
30
30
18
18
18
0C
0C
0C
0C
0C
0C
0C
08
18
18
18
30
30
60
C0
ENDCHAR
STARTCHAR 002A
ENCODING 42
SWIDTH 440 0
DWIDTH 11 0
BBX 9 8 1 9
BITMAP
0800
0C00
0C00
FB80
7F00
1C00
3600
3700
ENDCHAR
STARTCHAR 002B
ENCODING 43
SWIDTH 520 0
DWIDTH 13 0
BBX 12 11 1 3
BITMAP
0600
0600
0600
0600
0600
FFF0
FFF0
0600
0600
0600
0600
ENDCHAR
STARTCHAR 002C
ENCODING 44
SWIDTH 240 0
DWIDTH 6 0
BBX 4 5 1 -3
BITMAP
30
30
60
60
C0
ENDCHAR
STARTCHAR 002D
ENCODING 45
SWIDTH 440 0
DWIDTH 11 0
BBX 9 2 1 5
BITMAP
FF80
FF80
ENDCHAR
STARTCHAR 002E
ENCODING 46
SWIDTH 240 0
DWIDTH 6 0
BBX 4 3 1 0
BITMAP
70
F0
70
ENDCHAR
STARTCHAR 002F
ENCODING 47
SWIDTH 360 0
DWIDTH 9 0
BBX 6 18 2 0
BITMAP
0C
0C
0C
0C
18
18
18
30
30
30
30
60
60
60
C0
C0
C0
C0
ENDCHAR
STARTCHAR 0030
ENCODING 48
SWIDTH 680 0
DWIDTH 17 0
BBX 16 18 1 0
BITMAP
07C0
1FF0
3E7C
701C
600E
E006
C007
C003
C003
C003
C003
C007
E006
6006
700E
383C
1FF8
0FF0
ENDCHAR
STARTCHAR 0031
ENCODING 49
SWIDTH 280 0
DWIDTH 7 0
BBX 5 18 1 0
BITMAP
18
18
F8
F8
18
18
18
18
18
18
18
18
18
18
18
18
18
18
ENDCHAR
STARTCHAR 0032
ENCODING 50
SWIDTH 520 0
DWIDTH 13 0
BBX 12 18 1 0
BITMAP
0F00
3FC0
79E0
E0E0
E060
C060
0060
0060
00E0
01C0
0380
0700
0E00
1C00
3800
3000
7FF0
FFF0
ENDCHAR
STARTCHAR 0033
ENCODING 51
SWIDTH 520 0
DWIDTH 13 0
BBX 11 18 1 0
BITMAP
FFE0
FFE0
FF80
0300
0600
0C00
1F00
7F80
61C0
00E0
0060
0060
0060
0060
40E0
E1C0
7FC0
3F00
ENDCHAR
STARTCHAR 0034
ENCODING 52
SWIDTH 520 0
DWIDTH 13 0
BBX 13 18 0 0
BITMAP
0020
03E0
0FE0
1C60
3860
3060
7060
6060
6060
E060
E060
FFF8
FFF8
0060
0060
0060
0060
0060
ENDCHAR
STARTCHAR 0035
ENCODING 53
SWIDTH 520 0
DWIDTH 13 0
BBX 12 18 1 0
BITMAP
7FE0
7FE0
7FE0
6000
6000
6000
FF00
FFC0
F1E0
4060
0070
0070
0070
0070
0060
E0E0
7FC0
3F80
ENDCHAR
STARTCHAR 0036
ENCODING 54
SWIDTH 600 0
DWIDTH 15 0
BBX 13 18 1 0
BITMAP
0380
0300
0700
0E00
0C00
1F00
3FE0
3CF0
7038
E018
E018
C018
C018
E018
6038
7070
3FE0
1FC0
ENDCHAR
STARTCHAR 0037
ENCODING 55
SWIDTH 440 0
DWIDTH 11 0
BBX 10 18 1 0
BITMAP
FFC0
FFC0
FFC0
01C0
0180
0380
0300
7F80
7F80
0600
0E00
0C00
0C00
1C00
1800
3800
3000
3000
ENDCHAR
STARTCHAR 0038
ENCODING 56
SWIDTH 560 0
DWIDTH 14 0
BBX 12 18 1 0
BITMAP
0F00
1F80
39C0
30C0
30C0
30C0
1FC0
3FC0
70E0
E070
C030
C030
C030
C030
E070
70E0
7FE0
1F80
ENDCHAR
STARTCHAR 0039
ENCODING 57
SWIDTH 560 0
DWIDTH 14 0
BBX 13 18 1 0
BITMAP
0F80
3FE0
78F0
6030
E038
C018
C018
C018
C018
E038
7070
3FE0
1FE0
01C0
0180
0380
0700
0600
ENDCHAR
STARTCHAR 003A
ENCODING 58
SWIDTH 240 0
DWIDTH 6 0
BBX 4 12 1 0
BITMAP
70
F0
F0
00
00
00
00
00
00
70
F0
70
ENDCHAR
STARTCHAR 003B
ENCODING 59
SWIDTH 280 0
DWIDTH 7 0
BBX 5 15 1 -3
BITMAP
30
78
78
00
00
00
00
00
00
00
30
30
60
60
C0
ENDCHAR
STARTCHAR 003C
ENCODING 60
SWIDTH 520 0
DWIDTH 13 0
BBX 12 10 1 3
BITMAP
0030
00F0
07C0
3E00
F000
E000
7C00
0F80
01F0
0070
ENDCHAR
STARTCHAR 003D
ENCODING 61
SWIDTH 520 0
DWIDTH 13 0
BBX 12 7 1 5
BITMAP
FFF0
FFF0
0000
0000
0000
FFF0
FFF0
ENDCHAR
STARTCHAR 003E
ENCODING 62
SWIDTH 520 0
DWIDTH 13 0
BBX 12 10 1 3
BITMAP
C000
F000
3E00
07C0
00F0
0070
03E0
1F00
F800
E000
ENDCHAR
STARTCHAR 003F
ENCODING 63
SWIDTH 400 0
DWIDTH 10 0
BBX 8 18 1 0
BITMAP
1C
7F
67
C3
03
03
06
0E
0C
18
18
18
00
00
00
3C
3C
3C
ENDCHAR
STARTCHAR 0040
ENCODING 64
SWIDTH 800 0
DWIDTH 20 0
BBX 18 18 1 0
BITMAP
01F000
07FC00
1C0700
300100
300180
61F880
43B8C0
C318C0
C618C0
C61880
C63180
43FB00
63DE00
600000
300000
180300
0E0E00
03FC00
ENDCHAR
STARTCHAR 0041
ENCODING 65
SWIDTH 520 0
DWIDTH 13 0
BBX 13 18 1 0
BITMAP
1E00
3F80
7BC0
60C0
E0E0
E0E0
E0E0
E0E0
E0E0
E0E0
E0E0
E0E0
E0E0
E0E0
E0E0
E0E0
FFF8
FFF8
ENDCHAR
STARTCHAR 0042
ENCODING 66
SWIDTH 600 0
DWIDTH 15 0
BBX 13 18 1 0
BITMAP
3E00
3FE0
3FF0
3038
3038
3018
3038
3070
FFF0
FFF0
3078
3018
3018
3018
3018
3078
3FF0
3FC0
ENDCHAR
STARTCHAR 0043
ENCODING 67
SWIDTH 680 0
DWIDTH 17 0
BBX 16 18 1 0
BITMAP
03F0
0FFC
1F3E
3807
7000
6000
E000
C000
C000
C000
C000
E000
E000
7000
7806
3C0F
1FFE
07F8
ENDCHAR
STARTCHAR 0044
ENCODING 68
SWIDTH 640 0
DWIDTH 16 0
BBX 14 18 1 0
BITMAP
F800
FFC0
FFE0
E070
E038
E01C
E00C
E00C
E00C
E00C
E00C
E00C
E01C
E018
E038
E1F0
FFE0
FF00
ENDCHAR
STARTCHAR 0045
ENCODING 69
SWIDTH 480 0
DWIDTH 12 0
BBX 11 18 1 0
BITMAP
7F00
7F00
7F00
7000
7000
7000
7000
7000
FF80
FF80
7000
7000
7000
7000
7000
7000
7FE0
7FE0
ENDCHAR
STARTCHAR 0046
ENCODING 70
SWIDTH 440 0
DWIDTH 11 0
BBX 10 18 1 0
BITMAP
3FC0
3FC0
3FC0
3000
3000
3000
3000
3000
3000
FFC0
FFC0
3000
3000
3000
3000
3000
3000
3000
ENDCHAR
STARTCHAR 0047
ENCODING 71
SWIDTH 800 0
DWIDTH 20 0
BBX 20 18 1 0
BITMAP
03F000
0FFC00
1F1E00
380700
700200
600000
E00000
C00000
C07FF0
C07FF0
C000C0
E001C0
E001C0
700380
780380
3C0F00
1FFE00
07F800
ENDCHAR
STARTCHAR 0048
ENCODING 72
SWIDTH 560 0
DWIDTH 14 0
BBX 12 18 1 0
BITMAP
7070
7070
7070
7070
7070
7070
7070
7070
FFF0
FFF0
7070
7070
7070
7070
7070
7070
7070
7070
ENDCHAR
STARTCHAR 0049
ENCODING 73
SWIDTH 160 0
DWIDTH 4 0
BBX 7 20 -1 0
BITMAP
10
10
FE
78
38
28
00
00
00
38
38
38
38
38
38
38
38
38
38
38
ENDCHAR
STARTCHAR 004A
ENCODING 74
SWIDTH 440 0
DWIDTH 11 0
BBX 10 18 0 0
BITMAP
03C0
03C0
03C0
00C0
00C0
00C0
00C0
00C0
00C0
00C0
00C0
00C0
00C0
00C0
60C0
E1C0
7F80
3F00
ENDCHAR
STARTCHAR 004B
ENCODING 75
SWIDTH 520 0
DWIDTH 13 0
BBX 11 18 1 0
BITMAP
70C0
70C0
70C0
70C0
70C0
70C0
71C0
71C0
FF80
FFC0
71E0
70E0
7060
7060
7060
7060
7060
7060
ENDCHAR
STARTCHAR 004C
ENCODING 76
SWIDTH 400 0
DWIDTH 10 0
BBX 9 18 1 0
BITMAP
E000
E000
E000
E000
E000
E000
E000
E000
E000
E000
E000
E000
E000
E000
E000
E000
FF80
FF80
ENDCHAR
STARTCHAR 004D
ENCODING 77
SWIDTH 840 0
DWIDTH 21 0
BBX 19 18 1 0
BITMAP
804060
E06060
F07060
787C60
7E7E60
6F6760
63E3E0
61E1E0
60E0E0
606060
606060
606060
606060
606060
606060
606060
606060
606060
ENDCHAR
STARTCHAR 004E
ENCODING 78
SWIDTH 520 0
DWIDTH 13 0
BBX 11 18 1 0
BITMAP
80E0
E0E0
F0E0
F8E0
FEE0
EFE0
E7E0
E1E0
E0E0
E0E0
E0E0
E0E0
E0E0
E0E0
E0E0
E0E0
E0E0
E0E0
ENDCHAR
STARTCHAR 004F
ENCODING 79
SWIDTH 800 0
DWIDTH 20 0
BBX 19 18 1 0
BITMAP
03F000
0FFC00
1F1F00
380780
700380
6001C0
E000C0
C000C0
C000E0
C000E0
C000C0
E000C0
E001C0
7001C0
780380
3C0F00
1FFE00
07F800
ENDCHAR
STARTCHAR 0050
ENCODING 80
SWIDTH 520 0
DWIDTH 13 0
BBX 13 18 1 0
BITMAP
7C00
7FC0
7FE0
6070
6030
6038
6030
6030
6070
FFE0
FFC0
6000
6000
6000
6000
6000
6000
6000
ENDCHAR
STARTCHAR 0051
ENCODING 81
SWIDTH 800 0
DWIDTH 20 0
BBX 19 18 1 -1
BITMAP
03F000
0FFC00
1F1F00
380780
700380
6001C0
E000C0
C000C0
C000E0
C000E0
C000C0
E000C0
E009C0
701DC0
780F80
3C0F00
1FFF80
07F980
ENDCHAR
STARTCHAR 0052
ENCODING 82
SWIDTH 560 0
DWIDTH 14 0
BBX 13 18 1 0
BITMAP
7C00
7FE0
7FF0
7070
7038
7038
7038
7038
7070
FFE0
FFC0
70E0
7070
7070
7030
7030
7030
7030
ENDCHAR
STARTCHAR 0053
ENCODING 83
SWIDTH 480 0
DWIDTH 12 0
BBX 11 18 1 0
BITMAP
1E00
3F80
73C0
61C0
E0C0
6000
7000
3C00
1E00
0F80
03C0
01C0
00E0
C0E0
E0E0
E1C0
7FC0
3F80
ENDCHAR
STARTCHAR 0054
ENCODING 84
SWIDTH 480 0
DWIDTH 12 0
BBX 11 18 1 0
BITMAP
FFE0
FFE0
FFE0
0C00
0C00
0C00
0C00
0C00
0C00
0C00
0C00
0C00
0C00
0C00
0C00
0C00
0C00
0C00
ENDCHAR
STARTCHAR 0055
ENCODING 85
SWIDTH 480 0
DWIDTH 12 0
BBX 11 18 1 0
BITMAP
C0E0
C0E0
C0E0
C0E0
C0E0
C0E0
C0E0
C0E0
C0E0
C0E0
C0E0
C0E0
C0E0
E0E0
E0C0
71C0
7F80
3F00
ENDCHAR
STARTCHAR 0056
ENCODING 86
SWIDTH 440 0
DWIDTH 11 0
BBX 10 18 0 0
BITMAP
E0C0
E0C0
E0C0
E0C0
E0C0
E0C0
E0C0
E0C0
E0C0
E0C0
E0C0
E0C0
60C0
71C0
7180
3B80
1F00
1E00
ENDCHAR
STARTCHAR 0057
ENCODING 87
SWIDTH 760 0
DWIDTH 19 0
BBX 18 18 0 0
BITMAP
E0C0C0
E0C0C0
E0C0C0
E0C0C0
E0C0C0
E0C0C0
E0C0C0
E0C0C0
E0C0C0
E0E0C0
E0E0C0
E0E0C0
60E1C0
71E1C0
71F180
3BB380
1F3F00
1E1E00
ENDCHAR
STARTCHAR 0058
ENCODING 88
SWIDTH 480 0
DWIDTH 12 0
BBX 11 18 1 0
BITMAP
E0E0
E0E0
E0E0
E0E0
E0E0
E0C0
71C0
3F80
3F80
71C0
60C0
E0E0
E0E0
E0E0
E0E0
E0E0
E0E0
E0E0
ENDCHAR
STARTCHAR 0059
ENCODING 89
SWIDTH 480 0
DWIDTH 12 0
BBX 11 18 1 0
BITMAP
C0E0
C0E0
C0E0
C0E0
C0E0
C0E0
C0E0
C0E0
C0E0
E0C0
E0C0
73C0
3F80
1E00
0C00
0C00
0C00
0C00
ENDCHAR
STARTCHAR 005A
ENCODING 90
SWIDTH 480 0
DWIDTH 12 0
BBX 11 18 1 0
BITMAP
FFE0
FFE0
FFE0
01C0
0180
0380
0300
0700
0E00
0C00
1C00
1800
3800
7000
6000
E000
FFE0
FFE0
ENDCHAR
STARTCHAR 005B
ENCODING 91
SWIDTH 200 0
DWIDTH 5 0
BBX 4 23 1 -3
BITMAP
F0
C0
C0
C0
C0
C0
C0
C0
C0
C0
C0
C0
C0
C0
C0
C0
C0
C0
C0
C0
C0
C0
F0
ENDCHAR
STARTCHAR 005C
ENCODING 92
SWIDTH 360 0
DWIDTH 9 0
BBX 7 18 1 0
BITMAP
C0
60
60
60
30
30
30
30
18
18
18
0C
0C
0C
0C
06
06
06
ENDCHAR
STARTCHAR 005D
ENCODING 93
SWIDTH 200 0
DWIDTH 5 0
BBX 4 23 1 -3
BITMAP
F0
30
30
30
30
30
30
30
30
30
30
30
30
30
30
30
30
30
30
30
30
30
F0
ENDCHAR
STARTCHAR 005E
ENCODING 94
SWIDTH 480 0
DWIDTH 12 0
BBX 8 6 2 9
BITMAP
1C
3C
66
66
C3
C3
ENDCHAR
STARTCHAR 005F
ENCODING 95
SWIDTH 520 0
DWIDTH 13 0
BBX 11 2 1 -3
BITMAP
FFE0
FFE0
ENDCHAR
STARTCHAR 0060
ENCODING 96
SWIDTH 120 0
DWIDTH 3 0
BBX 4 3 0 19
BITMAP
C0
60
30
ENDCHAR
STARTCHAR 0061
ENCODING 97
SWIDTH 520 0
DWIDTH 13 0
BBX 13 18 1 0
BITMAP
1E00
3F80
7BC0
60C0
E0E0
E0E0
E0E0
E0E0
E0E0
E0E0
E0E0
E0E0
E0E0
E0E0
E0E0
E0E0
FFF8
FFF8
ENDCHAR
STARTCHAR 0062
ENCODING 98
SWIDTH 600 0
DWIDTH 15 0
BBX 13 18 1 0
BITMAP
3E00
3FE0
3FF0
3038
3038
3018
3038
3070
FFF0
FFF0
3078
3018
3018
3018
3018
3078
3FF0
3FC0
ENDCHAR
STARTCHAR 0063
ENCODING 99
SWIDTH 680 0
DWIDTH 17 0
BBX 16 18 1 0
BITMAP
03F0
0FFC
1F3E
3807
7000
6000
E000
C000
C000
C000
C000
E000
E000
7000
7806
3C0F
1FFE
07F8
ENDCHAR
STARTCHAR 0064
ENCODING 100
SWIDTH 640 0
DWIDTH 16 0
BBX 14 18 1 0
BITMAP
F800
FFC0
FFE0
E070
E038
E01C
E00C
E00C
E00C
E00C
E00C
E00C
E01C
E018
E038
E1F0
FFE0
FF00
ENDCHAR
STARTCHAR 0065
ENCODING 101
SWIDTH 480 0
DWIDTH 12 0
BBX 11 18 1 0
BITMAP
7F00
7F00
7F00
7000
7000
7000
7000
7000
FF80
FF80
7000
7000
7000
7000
7000
7000
7FE0
7FE0
ENDCHAR
STARTCHAR 0066
ENCODING 102
SWIDTH 440 0
DWIDTH 11 0
BBX 10 18 1 0
BITMAP
3FC0
3FC0
3FC0
3000
3000
3000
3000
3000
3000
FFC0
FFC0
3000
3000
3000
3000
3000
3000
3000
ENDCHAR
STARTCHAR 0067
ENCODING 103
SWIDTH 800 0
DWIDTH 20 0
BBX 20 18 1 0
BITMAP
03F000
0FFC00
1F1E00
380700
700200
600000
E00000
C00000
C07FF0
C07FF0
C000C0
E001C0
E001C0
700380
780380
3C0F00
1FFE00
07F800
ENDCHAR
STARTCHAR 0068
ENCODING 104
SWIDTH 560 0
DWIDTH 14 0
BBX 12 18 1 0
BITMAP
7070
7070
7070
7070
7070
7070
7070
7070
FFF0
FFF0
7070
7070
7070
7070
7070
7070
7070
7070
ENDCHAR
STARTCHAR 0069
ENCODING 105
SWIDTH 160 0
DWIDTH 4 0
BBX 7 20 -1 0
BITMAP
10
10
FE
78
38
28
00
00
00
38
38
38
38
38
38
38
38
38
38
38
ENDCHAR
STARTCHAR 006A
ENCODING 106
SWIDTH 440 0
DWIDTH 11 0
BBX 10 18 0 0
BITMAP
03C0
03C0
03C0
00C0
00C0
00C0
00C0
00C0
00C0
00C0
00C0
00C0
00C0
00C0
60C0
E1C0
7F80
3F00
ENDCHAR
STARTCHAR 006B
ENCODING 107
SWIDTH 520 0
DWIDTH 13 0
BBX 11 18 1 0
BITMAP
70C0
70C0
70C0
70C0
70C0
70C0
71C0
71C0
FF80
FFC0
71E0
70E0
7060
7060
7060
7060
7060
7060
ENDCHAR
STARTCHAR 006C
ENCODING 108
SWIDTH 400 0
DWIDTH 10 0
BBX 9 18 1 0
BITMAP
E000
E000
E000
E000
E000
E000
E000
E000
E000
E000
E000
E000
E000
E000
E000
E000
FF80
FF80
ENDCHAR
STARTCHAR 006D
ENCODING 109
SWIDTH 840 0
DWIDTH 21 0
BBX 19 18 1 0
BITMAP
804060
E06060
F07060
787C60
7E7E60
6F6760
63E3E0
61E1E0
60E0E0
606060
606060
606060
606060
606060
606060
606060
606060
606060
ENDCHAR
STARTCHAR 006E
ENCODING 110
SWIDTH 520 0
DWIDTH 13 0
BBX 11 18 1 0
BITMAP
80E0
E0E0
F0E0
F8E0
FEE0
EFE0
E7E0
E1E0
E0E0
E0E0
E0E0
E0E0
E0E0
E0E0
E0E0
E0E0
E0E0
E0E0
ENDCHAR
STARTCHAR 006F
ENCODING 111
SWIDTH 800 0
DWIDTH 20 0
BBX 19 18 1 0
BITMAP
03F000
0FFC00
1F1F00
380780
700380
6001C0
E000C0
C000C0
C000E0
C000E0
C000C0
E000C0
E001C0
7001C0
780380
3C0F00
1FFE00
07F800
ENDCHAR
STARTCHAR 0070
ENCODING 112
SWIDTH 520 0
DWIDTH 13 0
BBX 13 18 1 0
BITMAP
7C00
7FC0
7FE0
6070
6030
6038
6030
6030
6070
FFE0
FFC0
6000
6000
6000
6000
6000
6000
6000
ENDCHAR
STARTCHAR 0071
ENCODING 113
SWIDTH 800 0
DWIDTH 20 0
BBX 19 18 1 -1
BITMAP
03F000
0FFC00
1F1F00
380780
700380
6001C0
E000C0
C000C0
C000E0
C000E0
C000C0
E000C0
E009C0
701DC0
780F80
3C0F00
1FFF80
07F980
ENDCHAR
STARTCHAR 0072
ENCODING 114
SWIDTH 560 0
DWIDTH 14 0
BBX 13 18 1 0
BITMAP
7C00
7FE0
7FF0
7070
7038
7038
7038
7038
7070
FFE0
FFC0
70E0
7070
7070
7030
7030
7030
7030
ENDCHAR
STARTCHAR 0073
ENCODING 115
SWIDTH 480 0
DWIDTH 12 0
BBX 11 18 1 0
BITMAP
1E00
3F80
73C0
61C0
E0C0
6000
7000
3C00
1E00
0F80
03C0
01C0
00E0
C0E0
E0E0
E1C0
7FC0
3F80
ENDCHAR
STARTCHAR 0074
ENCODING 116
SWIDTH 480 0
DWIDTH 12 0
BBX 11 18 1 0
BITMAP
FFE0
FFE0
FFE0
0C00
0C00
0C00
0C00
0C00
0C00
0C00
0C00
0C00
0C00
0C00
0C00
0C00
0C00
0C00
ENDCHAR
STARTCHAR 0075
ENCODING 117
SWIDTH 480 0
DWIDTH 12 0
BBX 11 18 1 0
BITMAP
C0E0
C0E0
C0E0
C0E0
C0E0
C0E0
C0E0
C0E0
C0E0
C0E0
C0E0
C0E0
C0E0
E0E0
E0C0
71C0
7F80
3F00
ENDCHAR
STARTCHAR 0076
ENCODING 118
SWIDTH 440 0
DWIDTH 11 0
BBX 10 18 0 0
BITMAP
E0C0
E0C0
E0C0
E0C0
E0C0
E0C0
E0C0
E0C0
E0C0
E0C0
E0C0
E0C0
60C0
71C0
7180
3B80
1F00
1E00
ENDCHAR
STARTCHAR 0077
ENCODING 119
SWIDTH 760 0
DWIDTH 19 0
BBX 18 18 0 0
BITMAP
E0C0C0
E0C0C0
E0C0C0
E0C0C0
E0C0C0
E0C0C0
E0C0C0
E0C0C0
E0C0C0
E0E0C0
E0E0C0
E0E0C0
60E1C0
71E1C0
71F180
3BB380
1F3F00
1E1E00
ENDCHAR
STARTCHAR 0078
ENCODING 120
SWIDTH 480 0
DWIDTH 12 0
BBX 11 18 1 0
BITMAP
E0E0
E0E0
E0E0
E0E0
E0E0
E0C0
71C0
3F80
3F80
71C0
60C0
E0E0
E0E0
E0E0
E0E0
E0E0
E0E0
E0E0
ENDCHAR
STARTCHAR 0079
ENCODING 121
SWIDTH 480 0
DWIDTH 12 0
BBX 11 18 1 0
BITMAP
C0E0
C0E0
C0E0
C0E0
C0E0
C0E0
C0E0
C0E0
C0E0
E0C0
E0C0
73C0
3F80
1E00
0C00
0C00
0C00
0C00
ENDCHAR
STARTCHAR 007A
ENCODING 122
SWIDTH 480 0
DWIDTH 12 0
BBX 11 18 1 0
BITMAP
FFE0
FFE0
FFE0
01C0
0180
0380
0300
0700
0E00
0C00
1C00
1800
3800
7000
6000
E000
FFE0
FFE0
ENDCHAR
STARTCHAR 007B
ENCODING 123
SWIDTH 320 0
DWIDTH 8 0
BBX 6 24 1 -4
BITMAP
1C
38
30
30
30
30
30
30
30
30
60
E0
E0
30
30
30
30
30
30
30
30
30
1C
04
ENDCHAR
STARTCHAR 007C
ENCODING 124
SWIDTH 160 0
DWIDTH 4 0
BBX 2 21 1 -3
BITMAP
C0
C0
C0
C0
C0
C0
C0
C0
C0
C0
C0
C0
C0
C0
C0
C0
C0
C0
C0
C0
C0
ENDCHAR
STARTCHAR 007D
ENCODING 125
SWIDTH 320 0
DWIDTH 8 0
BBX 6 24 1 -4
BITMAP
F0
30
30
30
30
30
30
30
30
18
1C
0C
1C
18
30
30
30
30
30
30
30
30
F0
C0
ENDCHAR
STARTCHAR 007E
ENCODING 126
SWIDTH 520 0
DWIDTH 13 0
BBX 11 2 1 8
BITMAP
FFE0
DFE0
ENDCHAR
STARTCHAR 00A1
ENCODING 161
SWIDTH 240 0
DWIDTH 6 0
BBX 4 18 1 -3
BITMAP
70
F0
F0
20
00
00
60
60
60
60
60
60
60
60
60
60
60
60
ENDCHAR
STARTCHAR 00A2
ENCODING 162
SWIDTH 520 0
DWIDTH 13 0
BBX 11 15 1 1
BITMAP
0600
0700
1FC0
3EE0
6600
6600
C600
C600
C600
6600
7640
3FC0
1F80
0600
0600
ENDCHAR
STARTCHAR 00A3
ENCODING 163
SWIDTH 520 0
DWIDTH 13 0
BBX 11 18 1 0
BITMAP
03C0
0FE0
1FE0
3800
3000
3000
3000
3000
FFC0
FFC0
1C00
0C00
0C00
0C00
1C00
7800
FFE0
FFE0
ENDCHAR
STARTCHAR 00A4
ENCODING 164
SWIDTH 560 0
DWIDTH 14 0
BBX 12 12 1 2
BITMAP
4020
EF70
7FE0
3060
6060
6020
6060
6060
3060
3FE0
EFF0
4020
ENDCHAR
STARTCHAR 00A5
ENCODING 165
SWIDTH 640 0
DWIDTH 16 0
BBX 14 18 1 0
BITMAP
E01C
7018
7038
3830
3870
1C60
1CE0
0EC0
0FC0
3FF0
3FF0
0300
0300
3FF0
0300
0300
0300
0300
ENDCHAR
STARTCHAR 00A6
ENCODING 166
SWIDTH 160 0
DWIDTH 4 0
BBX 2 21 1 -3
BITMAP
C0
C0
C0
C0
C0
C0
C0
C0
00
00
00
00
00
C0
C0
C0
C0
C0
C0
C0
C0
ENDCHAR
STARTCHAR 00A7
ENCODING 167
SWIDTH 440 0
DWIDTH 11 0
BBX 10 21 1 -3
BITMAP
1E00
3F00
7B80
7180
7000
3800
1C00
1F00
7F80
6180
E1C0
6180
7F80
3F00
0E00
0700
0380
6180
7780
3F00
1E00
ENDCHAR
STARTCHAR 00A8
ENCODING 168
SWIDTH 360 0
DWIDTH 9 0
BBX 9 3 0 19
BITMAP
F380
F380
F380
ENDCHAR
STARTCHAR 00A9
ENCODING 169
SWIDTH 840 0
DWIDTH 21 0
BBX 19 18 1 0
BITMAP
01F000
071E00
180300
300180
2040C0
63F840
431840
C60060
C60060
C60060
C60060
460060
43F840
61F0C0
300080
180380
0C0600
07FC00
ENDCHAR
STARTCHAR 00AB
ENCODING 171
SWIDTH 520 0
DWIDTH 13 0
BBX 11 11 1 2
BITMAP
0C60
1CC0
1980
3180
6300
E600
7300
3180
19C0
0CE0
0E60
ENDCHAR
STARTCHAR 00AC
ENCODING 172
SWIDTH 520 0
DWIDTH 13 0
BBX 12 6 1 3
BITMAP
FFF0
FFF0
0030
0030
0030
0030
ENDCHAR
STARTCHAR 00AE
ENCODING 174
SWIDTH 480 0
DWIDTH 12 0
BBX 10 10 1 8
BITMAP
1F00
2180
4CC0
CA40
9E40
8E40
4A40
4080
3180
0C00
ENDCHAR
STARTCHAR 00AF
ENCODING 175
SWIDTH 280 0
DWIDTH 7 0
BBX 7 2 0 20
BITMAP
FE
FE
ENDCHAR
STARTCHAR 00B0
ENCODING 176
SWIDTH 320 0
DWIDTH 8 0
BBX 6 6 1 12
BITMAP
30
7C
C4
C4
6C
38
ENDCHAR
STARTCHAR 00B1
ENCODING 177
SWIDTH 520 0
DWIDTH 13 0
BBX 12 10 1 3
BITMAP
0600
0600
0600
FFF0
FFF0
0600
0600
0000
0000
FFF0
ENDCHAR
STARTCHAR 00B4
ENCODING 180
SWIDTH 120 0
DWIDTH 3 0
BBX 3 3 0 19
BITMAP
60
60
C0
ENDCHAR
STARTCHAR 00B6
ENCODING 182
SWIDTH 440 0
DWIDTH 11 0
BBX 10 21 1 -3
BITMAP
06C0
3EC0
7EC0
7EC0
FEC0
FEC0
FEC0
7EC0
3EC0
1EC0
06C0
06C0
06C0
06C0
06C0
06C0
06C0
06C0
06C0
06C0
06C0
ENDCHAR
STARTCHAR 00B7
ENCODING 183
SWIDTH 240 0
DWIDTH 6 0
BBX 4 3 1 5
BITMAP
70
F0
70
ENDCHAR
STARTCHAR 00B8
ENCODING 184
SWIDTH 200 0
DWIDTH 5 0
BBX 5 5 0 -5
BITMAP
30
38
08
C8
78
ENDCHAR
STARTCHAR 00BB
ENCODING 187
SWIDTH 520 0
DWIDTH 13 0
BBX 10 11 2 2
BITMAP
CE00
6700
7300
3180
19C0
1CC0
19C0
3180
6300
E600
CE00
ENDCHAR
STARTCHAR 00BF
ENCODING 191
SWIDTH 400 0
DWIDTH 10 0
BBX 8 18 1 -3
BITMAP
1C
1E
1C
00
00
00
0C
0C
18
18
30
70
60
E0
E3
77
7E
1C
ENDCHAR
STARTCHAR 00C0
ENCODING 192
SWIDTH 520 0
DWIDTH 13 0
BBX 13 22 1 0
BITMAP
1800
0C00
0400
0000
1E00
3F80
7BC0
60C0
E0E0
E0E0
E0E0
E0E0
E0E0
E0E0
E0E0
E0E0
E0E0
E0E0
E0E0
E0E0
FFF8
FFF8
ENDCHAR
STARTCHAR 00C1
ENCODING 193
SWIDTH 520 0
DWIDTH 13 0
BBX 13 22 1 0
BITMAP
0300
0600
0400
0000
1E00
3F80
7BC0
60C0
E0E0
E0E0
E0E0
E0E0
E0E0
E0E0
E0E0
E0E0
E0E0
E0E0
E0E0
E0E0
FFF8
FFF8
ENDCHAR
STARTCHAR 00C2
ENCODING 194
SWIDTH 520 0
DWIDTH 13 0
BBX 13 22 1 0
BITMAP
0E00
1B00
3180
0000
1E00
3F80
7BC0
60C0
E0E0
E0E0
E0E0
E0E0
E0E0
E0E0
E0E0
E0E0
E0E0
E0E0
E0E0
E0E0
FFF8
FFF8
ENDCHAR
STARTCHAR 00C3
ENCODING 195
SWIDTH 520 0
DWIDTH 13 0
BBX 13 22 1 0
BITMAP
3F00
2F00
0000
0000
1E00
3F80
7BC0
60C0
E0E0
E0E0
E0E0
E0E0
E0E0
E0E0
E0E0
E0E0
E0E0
E0E0
E0E0
E0E0
FFF8
FFF8
ENDCHAR
STARTCHAR 00C4
ENCODING 196
SWIDTH 520 0
DWIDTH 13 0
BBX 13 22 1 0
BITMAP
71C0
79C0
71C0
0000
1E00
3F80
7BC0
60C0
E0E0
E0E0
E0E0
E0E0
E0E0
E0E0
E0E0
E0E0
E0E0
E0E0
E0E0
E0E0
FFF8
FFF8
ENDCHAR
STARTCHAR 00C5
ENCODING 197
SWIDTH 520 0
DWIDTH 13 0
BBX 13 24 1 0
BITMAP
0E00
1B00
1100
1B00
0E00
0000
1E00
3F80
7BC0
60C0
E0E0
E0E0
E0E0
E0E0
E0E0
E0E0
E0E0
E0E0
E0E0
E0E0
E0E0
E0E0
FFF8
FFF8
ENDCHAR
STARTCHAR 00C7
ENCODING 199
SWIDTH 680 0
DWIDTH 17 0
BBX 16 23 1 -5
BITMAP
03F0
0FFC
1F3E
3807
7000
6000
E000
C000
C000
C000
C000
E000
E000
7000
7806
3C0F
1FFE
07F8
0080
00C0
0060
0260
03C0
ENDCHAR
STARTCHAR 00C8
ENCODING 200
SWIDTH 480 0
DWIDTH 12 0
BBX 11 22 1 0
BITMAP
1800
1800
0C00
0000
7F00
7F00
7F00
7000
7000
7000
7000
7000
FF80
FF80
7000
7000
7000
7000
7000
7000
7FE0
7FE0
ENDCHAR
STARTCHAR 00C9
ENCODING 201
SWIDTH 480 0
DWIDTH 12 0
BBX 11 22 1 0
BITMAP
0600
0400
0800
0000
7F00
7F00
7F00
7000
7000
7000
7000
7000
FF80
FF80
7000
7000
7000
7000
7000
7000
7FE0
7FE0
ENDCHAR
STARTCHAR 00CA
ENCODING 202
SWIDTH 480 0
DWIDTH 12 0
BBX 11 22 1 0
BITMAP
1E00
3700
6300
0000
7F00
7F00
7F00
7000
7000
7000
7000
7000
FF80
FF80
7000
7000
7000
7000
7000
7000
7FE0
7FE0
ENDCHAR
STARTCHAR 00CB
ENCODING 203
SWIDTH 480 0
DWIDTH 12 0
BBX 11 22 1 0
BITMAP
7380
F3C0
7380
0000
7F00
7F00
7F00
7000
7000
7000
7000
7000
FF80
FF80
7000
7000
7000
7000
7000
7000
7FE0
7FE0
ENDCHAR
STARTCHAR 00CC
ENCODING 204
SWIDTH 200 0
DWIDTH 5 0
BBX 4 16 0 0
BITMAP
C0
40
60
30
00
70
70
70
70
70
70
70
70
70
70
70
ENDCHAR
STARTCHAR 00CD
ENCODING 205
SWIDTH 200 0
DWIDTH 5 0
BBX 4 16 1 0
BITMAP
30
20
60
C0
00
E0
E0
E0
E0
E0
E0
E0
E0
E0
E0
E0
ENDCHAR
STARTCHAR 00CE
ENCODING 206
SWIDTH 200 0
DWIDTH 5 0
BBX 7 16 -1 0
BITMAP
38
7C
6C
C6
00
38
38
38
38
38
38
38
38
38
38
38
ENDCHAR
STARTCHAR 00CF
ENCODING 207
SWIDTH 200 0
DWIDTH 5 0
BBX 9 16 -2 0
BITMAP
4100
F380
F380
6380
0000
1C00
1C00
1C00
1C00
1C00
1C00
1C00
1C00
1C00
1C00
1C00
ENDCHAR
STARTCHAR 00D1
ENCODING 209
SWIDTH 520 0
DWIDTH 13 0
BBX 11 22 1 0
BITMAP
3F00
2F00
0000
0000
80E0
E0E0
F0E0
F8E0
FEE0
EFE0
E7E0
E1E0
E0E0
E0E0
E0E0
E0E0
E0E0
E0E0
E0E0
E0E0
E0E0
E0E0
ENDCHAR
STARTCHAR 00D2
ENCODING 210
SWIDTH 800 0
DWIDTH 20 0
BBX 19 22 1 0
BITMAP
018000
00C000
004000
000000
03F000
0FFC00
1F1F00
380780
700380
6001C0
E000C0
C000C0
C000E0
C000E0
C000C0
E000C0
E001C0
7001C0
780380
3C0F00
1FFE00
07F800
ENDCHAR
STARTCHAR 00D3
ENCODING 211
SWIDTH 800 0
DWIDTH 20 0
BBX 19 22 1 0
BITMAP
006000
006000
00C000
000000
03F000
0FFC00
1F1F00
380780
700380
6001C0
E000C0
C000C0
C000E0
C000E0
C000C0
E000C0
E001C0
7001C0
780380
3C0F00
1FFE00
07F800
ENDCHAR
STARTCHAR 00D4
ENCODING 212
SWIDTH 800 0
DWIDTH 20 0
BBX 19 22 1 0
BITMAP
01E000
01B000
031800
000000
03F000
0FFC00
1F1F00
380780
700380
6001C0
E000C0
C000C0
C000E0
C000E0
C000C0
E000C0
E001C0
7001C0
780380
3C0F00
1FFE00
07F800
ENDCHAR
STARTCHAR 00D5
ENCODING 213
SWIDTH 800 0
DWIDTH 20 0
BBX 19 22 1 0
BITMAP
03F000
02F000
000000
000000
03F000
0FFC00
1F1F00
380780
700380
6001C0
E000C0
C000C0
C000E0
C000E0
C000C0
E000C0
E001C0
7001C0
780380
3C0F00
1FFE00
07F800
ENDCHAR
STARTCHAR 00D6
ENCODING 214
SWIDTH 800 0
DWIDTH 20 0
BBX 19 22 1 0
BITMAP
071C00
073C00
071C00
000000
03F000
0FFC00
1F1F00
380780
700380
6001C0
E000C0
C000C0
C000E0
C000E0
C000C0
E000C0
E001C0
7001C0
780380
3C0F00
1FFE00
07F800
ENDCHAR
STARTCHAR 00D7
ENCODING 215
SWIDTH 480 0
DWIDTH 12 0
BBX 11 10 1 4
BITMAP
60C0
71C0
3B80
1F00
0E00
1F00
3B80
71C0
E0E0
4040
ENDCHAR
STARTCHAR 00D8
ENCODING 216
SWIDTH 760 0
DWIDTH 19 0
BBX 18 19 1 -1
BITMAP
03F180
0FFF80
1F3F00
380700
700F80
E019C0
C031C0
C070C0
C0E0C0
C1C0C0
C180C0
C300C0
E601C0
6C0380
780380
3C0F00
7FFE00
67F800
400000
ENDCHAR
STARTCHAR 00D9
ENCODING 217
SWIDTH 480 0
DWIDTH 12 0
BBX 11 22 1 0
BITMAP
1800
0C00
0400
0000
C0E0
C0E0
C0E0
C0E0
C0E0
C0E0
C0E0
C0E0
C0E0
C0E0
C0E0
C0E0
C0E0
E0E0
E0C0
71C0
7F80
3F00
ENDCHAR
STARTCHAR 00DA
ENCODING 218
SWIDTH 480 0
DWIDTH 12 0
BBX 11 22 1 0
BITMAP
0300
0600
0C00
0000
C0E0
C0E0
C0E0
C0E0
C0E0
C0E0
C0E0
C0E0
C0E0
C0E0
C0E0
C0E0
C0E0
E0E0
E0C0
71C0
7F80
3F00
ENDCHAR
STARTCHAR 00DB
ENCODING 219
SWIDTH 480 0
DWIDTH 12 0
BBX 11 22 1 0
BITMAP
1E00
1B00
3180
0000
C0E0
C0E0
C0E0
C0E0
C0E0
C0E0
C0E0
C0E0
C0E0
C0E0
C0E0
C0E0
C0E0
E0E0
E0C0
71C0
7F80
3F00
ENDCHAR
STARTCHAR 00DC
ENCODING 220
SWIDTH 480 0
DWIDTH 12 0
BBX 11 22 1 0
BITMAP
71C0
7BC0
71C0
0000
C0E0
C0E0
C0E0
C0E0
C0E0
C0E0
C0E0
C0E0
C0E0
C0E0
C0E0
C0E0
C0E0
E0E0
E0C0
71C0
7F80
3F00
ENDCHAR
STARTCHAR 00DD
ENCODING 221
SWIDTH 480 0
DWIDTH 12 0
BBX 11 22 1 0
BITMAP
0600
0600
0C00
0000
C0E0
C0E0
C0E0
C0E0
C0E0
C0E0
C0E0
C0E0
C0E0
E0C0
E0C0
73C0
3F80
1E00
0C00
0C00
0C00
0C00
ENDCHAR
STARTCHAR 00E0
ENCODING 224
SWIDTH 520 0
DWIDTH 13 0
BBX 13 22 1 0
BITMAP
1800
0C00
0400
0000
1E00
3F80
7BC0
60C0
E0E0
E0E0
E0E0
E0E0
E0E0
E0E0
E0E0
E0E0
E0E0
E0E0
E0E0
E0E0
FFF8
FFF8
ENDCHAR
STARTCHAR 00E1
ENCODING 225
SWIDTH 520 0
DWIDTH 13 0
BBX 13 22 1 0
BITMAP
0300
0600
0400
0000
1E00
3F80
7BC0
60C0
E0E0
E0E0
E0E0
E0E0
E0E0
E0E0
E0E0
E0E0
E0E0
E0E0
E0E0
E0E0
FFF8
FFF8
ENDCHAR
STARTCHAR 00E2
ENCODING 226
SWIDTH 520 0
DWIDTH 13 0
BBX 13 22 1 0
BITMAP
0E00
1B00
3180
0000
1E00
3F80
7BC0
60C0
E0E0
E0E0
E0E0
E0E0
E0E0
E0E0
E0E0
E0E0
E0E0
E0E0
E0E0
E0E0
FFF8
FFF8
ENDCHAR
STARTCHAR 00E3
ENCODING 227
SWIDTH 520 0
DWIDTH 13 0
BBX 13 22 1 0
BITMAP
3F00
2F00
0000
0000
1E00
3F80
7BC0
60C0
E0E0
E0E0
E0E0
E0E0
E0E0
E0E0
E0E0
E0E0
E0E0
E0E0
E0E0
E0E0
FFF8
FFF8
ENDCHAR
STARTCHAR 00E4
ENCODING 228
SWIDTH 520 0
DWIDTH 13 0
BBX 13 22 1 0
BITMAP
71C0
79C0
71C0
0000
1E00
3F80
7BC0
60C0
E0E0
E0E0
E0E0
E0E0
E0E0
E0E0
E0E0
E0E0
E0E0
E0E0
E0E0
E0E0
FFF8
FFF8
ENDCHAR
STARTCHAR 00E5
ENCODING 229
SWIDTH 520 0
DWIDTH 13 0
BBX 13 24 1 0
BITMAP
0E00
1B00
1100
1B00
0E00
0000
1E00
3F80
7BC0
60C0
E0E0
E0E0
E0E0
E0E0
E0E0
E0E0
E0E0
E0E0
E0E0
E0E0
E0E0
E0E0
FFF8
FFF8
ENDCHAR
STARTCHAR 00E7
ENCODING 231
SWIDTH 680 0
DWIDTH 17 0
BBX 16 23 1 -5
BITMAP
03F0
0FFC
1F3E
3807
7000
6000
E000
C000
C000
C000
C000
E000
E000
7000
7806
3C0F
1FFE
07F8
0080
00C0
0060
0260
03C0
ENDCHAR
STARTCHAR 00E8
ENCODING 232
SWIDTH 480 0
DWIDTH 12 0
BBX 11 22 1 0
BITMAP
1800
1800
0C00
0000
7F00
7F00
7F00
7000
7000
7000
7000
7000
FF80
FF80
7000
7000
7000
7000
7000
7000
7FE0
7FE0
ENDCHAR
STARTCHAR 00E9
ENCODING 233
SWIDTH 480 0
DWIDTH 12 0
BBX 11 22 1 0
BITMAP
0600
0400
0800
0000
7F00
7F00
7F00
7000
7000
7000
7000
7000
FF80
FF80
7000
7000
7000
7000
7000
7000
7FE0
7FE0
ENDCHAR
STARTCHAR 00EA
ENCODING 234
SWIDTH 480 0
DWIDTH 12 0
BBX 11 22 1 0
BITMAP
1E00
3700
6300
0000
7F00
7F00
7F00
7000
7000
7000
7000
7000
FF80
FF80
7000
7000
7000
7000
7000
7000
7FE0
7FE0
ENDCHAR
STARTCHAR 00EB
ENCODING 235
SWIDTH 480 0
DWIDTH 12 0
BBX 11 22 1 0
BITMAP
7380
F3C0
7380
0000
7F00
7F00
7F00
7000
7000
7000
7000
7000
FF80
FF80
7000
7000
7000
7000
7000
7000
7FE0
7FE0
ENDCHAR
STARTCHAR 00EC
ENCODING 236
SWIDTH 200 0
DWIDTH 5 0
BBX 4 16 0 0
BITMAP
C0
40
60
30
00
70
70
70
70
70
70
70
70
70
70
70
ENDCHAR
STARTCHAR 00ED
ENCODING 237
SWIDTH 200 0
DWIDTH 5 0
BBX 4 16 1 0
BITMAP
30
20
60
C0
00
E0
E0
E0
E0
E0
E0
E0
E0
E0
E0
E0
ENDCHAR
STARTCHAR 00EE
ENCODING 238
SWIDTH 200 0
DWIDTH 5 0
BBX 7 16 -1 0
BITMAP
38
7C
6C
C6
00
38
38
38
38
38
38
38
38
38
38
38
ENDCHAR
STARTCHAR 00EF
ENCODING 239
SWIDTH 200 0
DWIDTH 5 0
BBX 9 16 -2 0
BITMAP
4100
F380
F380
6380
0000
1C00
1C00
1C00
1C00
1C00
1C00
1C00
1C00
1C00
1C00
1C00
ENDCHAR
STARTCHAR 00F1
ENCODING 241
SWIDTH 520 0
DWIDTH 13 0
BBX 11 22 1 0
BITMAP
3F00
2F00
0000
0000
80E0
E0E0
F0E0
F8E0
FEE0
EFE0
E7E0
E1E0
E0E0
E0E0
E0E0
E0E0
E0E0
E0E0
E0E0
E0E0
E0E0
E0E0
ENDCHAR
STARTCHAR 00F2
ENCODING 242
SWIDTH 800 0
DWIDTH 20 0
BBX 19 22 1 0
BITMAP
018000
00C000
004000
000000
03F000
0FFC00
1F1F00
380780
700380
6001C0
E000C0
C000C0
C000E0
C000E0
C000C0
E000C0
E001C0
7001C0
780380
3C0F00
1FFE00
07F800
ENDCHAR
STARTCHAR 00F3
ENCODING 243
SWIDTH 800 0
DWIDTH 20 0
BBX 19 22 1 0
BITMAP
006000
006000
00C000
000000
03F000
0FFC00
1F1F00
380780
700380
6001C0
E000C0
C000C0
C000E0
C000E0
C000C0
E000C0
E001C0
7001C0
780380
3C0F00
1FFE00
07F800
ENDCHAR
STARTCHAR 00F4
ENCODING 244
SWIDTH 800 0
DWIDTH 20 0
BBX 19 22 1 0
BITMAP
01E000
01B000
031800
000000
03F000
0FFC00
1F1F00
380780
700380
6001C0
E000C0
C000C0
C000E0
C000E0
C000C0
E000C0
E001C0
7001C0
780380
3C0F00
1FFE00
07F800
ENDCHAR
STARTCHAR 00F5
ENCODING 245
SWIDTH 800 0
DWIDTH 20 0
BBX 19 22 1 0
BITMAP
03F000
02F000
000000
000000
03F000
0FFC00
1F1F00
380780
700380
6001C0
E000C0
C000C0
C000E0
C000E0
C000C0
E000C0
E001C0
7001C0
780380
3C0F00
1FFE00
07F800
ENDCHAR
STARTCHAR 00F6
ENCODING 246
SWIDTH 800 0
DWIDTH 20 0
BBX 19 22 1 0
BITMAP
071C00
073C00
071C00
000000
03F000
0FFC00
1F1F00
380780
700380
6001C0
E000C0
C000C0
C000E0
C000E0
C000C0
E000C0
E001C0
7001C0
780380
3C0F00
1FFE00
07F800
ENDCHAR
STARTCHAR 00F7
ENCODING 247
SWIDTH 520 0
DWIDTH 13 0
BBX 12 10 1 3
BITMAP
0F00
0F00
0000
0000
FFF0
FFF0
0000
0000
0F00
0E00
ENDCHAR
STARTCHAR 00F8
ENCODING 248
SWIDTH 760 0
DWIDTH 19 0
BBX 18 19 1 -1
BITMAP
03F180
0FFF80
1F3F00
380700
700F80
E019C0
C031C0
C070C0
C0E0C0
C1C0C0
C180C0
C300C0
E601C0
6C0380
780380
3C0F00
7FFE00
67F800
400000
ENDCHAR
STARTCHAR 00F9
ENCODING 249
SWIDTH 480 0
DWIDTH 12 0
BBX 11 22 1 0
BITMAP
1800
0C00
0400
0000
C0E0
C0E0
C0E0
C0E0
C0E0
C0E0
C0E0
C0E0
C0E0
C0E0
C0E0
C0E0
C0E0
E0E0
E0C0
71C0
7F80
3F00
ENDCHAR
STARTCHAR 00FA
ENCODING 250
SWIDTH 480 0
DWIDTH 12 0
BBX 11 22 1 0
BITMAP
0300
0600
0C00
0000
C0E0
C0E0
C0E0
C0E0
C0E0
C0E0
C0E0
C0E0
C0E0
C0E0
C0E0
C0E0
C0E0
E0E0
E0C0
71C0
7F80
3F00
ENDCHAR
STARTCHAR 00FB
ENCODING 251
SWIDTH 480 0
DWIDTH 12 0
BBX 11 22 1 0
BITMAP
1E00
1B00
3180
0000
C0E0
C0E0
C0E0
C0E0
C0E0
C0E0
C0E0
C0E0
C0E0
C0E0
C0E0
C0E0
C0E0
E0E0
E0C0
71C0
7F80
3F00
ENDCHAR
STARTCHAR 00FC
ENCODING 252
SWIDTH 480 0
DWIDTH 12 0
BBX 11 22 1 0
BITMAP
71C0
7BC0
71C0
0000
C0E0
C0E0
C0E0
C0E0
C0E0
C0E0
C0E0
C0E0
C0E0
C0E0
C0E0
C0E0
C0E0
E0E0
E0C0
71C0
7F80
3F00
ENDCHAR
STARTCHAR 00FD
ENCODING 253
SWIDTH 480 0
DWIDTH 12 0
BBX 11 22 1 0
BITMAP
0600
0600
0C00
0000
C0E0
C0E0
C0E0
C0E0
C0E0
C0E0
C0E0
C0E0
C0E0
E0C0
E0C0
73C0
3F80
1E00
0C00
0C00
0C00
0C00
ENDCHAR
STARTCHAR 00FF
ENCODING 255
SWIDTH 480 0
DWIDTH 12 0
BBX 11 22 1 0
BITMAP
71C0
73C0
71C0
0000
C0E0
C0E0
C0E0
C0E0
C0E0
C0E0
C0E0
C0E0
C0E0
E0C0
E0C0
73C0
3F80
1E00
0C00
0C00
0C00
0C00
ENDCHAR
STARTCHAR 0100
ENCODING 256
SWIDTH 520 0
DWIDTH 13 0
BBX 13 22 1 0
BITMAP
3F80
3F80
0000
0000
1E00
3F80
7BC0
60C0
E0E0
E0E0
E0E0
E0E0
E0E0
E0E0
E0E0
E0E0
E0E0
E0E0
E0E0
E0E0
FFF8
FFF8
ENDCHAR
STARTCHAR 0101
ENCODING 257
SWIDTH 520 0
DWIDTH 13 0
BBX 13 22 1 0
BITMAP
3F80
3F80
0000
0000
1E00
3F80
7BC0
60C0
E0E0
E0E0
E0E0
E0E0
E0E0
E0E0
E0E0
E0E0
E0E0
E0E0
E0E0
E0E0
FFF8
FFF8
ENDCHAR
STARTCHAR 0102
ENCODING 258
SWIDTH 520 0
DWIDTH 13 0
BBX 13 22 1 0
BITMAP
3180
1B00
0E00
0000
1E00
3F80
7BC0
60C0
E0E0
E0E0
E0E0
E0E0
E0E0
E0E0
E0E0
E0E0
E0E0
E0E0
E0E0
E0E0
FFF8
FFF8
ENDCHAR
STARTCHAR 0103
ENCODING 259
SWIDTH 520 0
DWIDTH 13 0
BBX 13 22 1 0
BITMAP
3180
1B00
0E00
0000
1E00
3F80
7BC0
60C0
E0E0
E0E0
E0E0
E0E0
E0E0
E0E0
E0E0
E0E0
E0E0
E0E0
E0E0
E0E0
FFF8
FFF8
ENDCHAR
STARTCHAR 0104
ENCODING 260
SWIDTH 520 0
DWIDTH 13 0
BBX 13 23 1 -5
BITMAP
1E00
3F80
7BC0
60C0
E0E0
E0E0
E0E0
E0E0
E0E0
E0E0
E0E0
E0E0
E0E0
E0E0
E0E0
E0E0
FFF8
FFF8
0060
0040
0040
0078
0030
ENDCHAR
STARTCHAR 0105
ENCODING 261
SWIDTH 520 0
DWIDTH 13 0
BBX 13 23 1 -5
BITMAP
1E00
3F80
7BC0
60C0
E0E0
E0E0
E0E0
E0E0
E0E0
E0E0
E0E0
E0E0
E0E0
E0E0
E0E0
E0E0
FFF8
FFF8
0060
0040
0040
0078
0030
ENDCHAR
STARTCHAR 0106
ENCODING 262
SWIDTH 680 0
DWIDTH 17 0
BBX 16 22 1 0
BITMAP
0060
0040
00C0
0000
03F0
0FFC
1F3E
3807
7000
6000
E000
C000
C000
C000
C000
E000
E000
7000
7806
3C0F
1FFE
07F8
ENDCHAR
STARTCHAR 0107
ENCODING 263
SWIDTH 680 0
DWIDTH 17 0
BBX 16 22 1 0
BITMAP
0060
0040
00C0
0000
03F0
0FFC
1F3E
3807
7000
6000
E000
C000
C000
C000
C000
E000
E000
7000
7806
3C0F
1FFE
07F8
ENDCHAR
STARTCHAR 010A
ENCODING 266
SWIDTH 680 0
DWIDTH 17 0
BBX 16 23 1 0
BITMAP
00C0
01E0
01E0
00C0
0000
03F0
0FFC
1F3E
3807
7000
6000
E000
C000
C000
C000
C000
E000
E000
7000
7806
3C0F
1FFE
07F8
ENDCHAR
STARTCHAR 010B
ENCODING 267
SWIDTH 680 0
DWIDTH 17 0
BBX 16 23 1 0
BITMAP
00C0
01E0
01E0
00C0
0000
03F0
0FFC
1F3E
3807
7000
6000
E000
C000
C000
C000
C000
E000
E000
7000
7806
3C0F
1FFE
07F8
ENDCHAR
STARTCHAR 010C
ENCODING 268
SWIDTH 680 0
DWIDTH 17 0
BBX 16 23 1 0
BITMAP
0618
0330
01E0
00C0
0000
03F0
0FFC
1F3E
3807
7000
6000
E000
C000
C000
C000
C000
E000
E000
7000
7806
3C0F
1FFE
07F8
ENDCHAR
STARTCHAR 010D
ENCODING 269
SWIDTH 680 0
DWIDTH 17 0
BBX 16 23 1 0
BITMAP
0618
0330
01E0
00C0
0000
03F0
0FFC
1F3E
3807
7000
6000
E000
C000
C000
C000
C000
E000
E000
7000
7806
3C0F
1FFE
07F8
ENDCHAR
STARTCHAR 010E
ENCODING 270
SWIDTH 640 0
DWIDTH 16 0
BBX 14 23 1 0
BITMAP
30C0
1980
0F00
0E00
0000
F800
FFC0
FFE0
E070
E038
E01C
E00C
E00C
E00C
E00C
E00C
E00C
E01C
E018
E038
E1F0
FFE0
FF00
ENDCHAR
STARTCHAR 010F
ENCODING 271
SWIDTH 640 0
DWIDTH 16 0
BBX 14 23 1 0
BITMAP
30C0
1980
0F00
0E00
0000
F800
FFC0
FFE0
E070
E038
E01C
E00C
E00C
E00C
E00C
E00C
E00C
E01C
E018
E038
E1F0
FFE0
FF00
ENDCHAR
STARTCHAR 0110
ENCODING 272
SWIDTH 680 0
DWIDTH 17 0
BBX 15 18 1 0
BITMAP
7C00
7FE0
7FF0
7038
701C
700E
700E
7006
FF06
FF06
7006
7006
700E
700C
703C
70F8
7FF0
7F80
ENDCHAR
STARTCHAR 0111
ENCODING 273
SWIDTH 680 0
DWIDTH 17 0
BBX 15 18 1 0
BITMAP
7C00
7FE0
7FF0
7038
701C
700E
700E
7006
FF06
FF06
7006
7006
700E
700C
703C
70F8
7FF0
7F80
ENDCHAR
STARTCHAR 0112
ENCODING 274
SWIDTH 480 0
DWIDTH 12 0
BBX 11 22 1 0
BITMAP
7F00
7F00
0000
0000
7F00
7F00
7F00
7000
7000
7000
7000
7000
FF80
FF80
7000
7000
7000
7000
7000
7000
7FE0
7FE0
ENDCHAR
STARTCHAR 0113
ENCODING 275
SWIDTH 480 0
DWIDTH 12 0
BBX 11 22 1 0
BITMAP
7F00
7F00
0000
0000
7F00
7F00
7F00
7000
7000
7000
7000
7000
FF80
FF80
7000
7000
7000
7000
7000
7000
7FE0
7FE0
ENDCHAR
STARTCHAR 0116
ENCODING 278
SWIDTH 480 0
DWIDTH 12 0
BBX 11 23 1 0
BITMAP
0C00
1E00
1E00
0C00
0000
7F00
7F00
7F00
7000
7000
7000
7000
7000
FF80
FF80
7000
7000
7000
7000
7000
7000
7FE0
7FE0
ENDCHAR
STARTCHAR 0117
ENCODING 279
SWIDTH 480 0
DWIDTH 12 0
BBX 11 23 1 0
BITMAP
0C00
1E00
1E00
0C00
0000
7F00
7F00
7F00
7000
7000
7000
7000
7000
FF80
FF80
7000
7000
7000
7000
7000
7000
7FE0
7FE0
ENDCHAR
STARTCHAR 0118
ENCODING 280
SWIDTH 480 0
DWIDTH 12 0
BBX 12 23 1 -5
BITMAP
7F00
7F00
7F00
7000
7000
7000
7000
7000
FF80
FF80
7000
7000
7000
7000
7000
7000
7FE0
7FE0
00C0
0080
0180
00F0
0060
ENDCHAR
STARTCHAR 0119
ENCODING 281
SWIDTH 480 0
DWIDTH 12 0
BBX 12 23 1 -5
BITMAP
7F00
7F00
7F00
7000
7000
7000
7000
7000
FF80
FF80
7000
7000
7000
7000
7000
7000
7FE0
7FE0
00C0
0080
0180
00F0
0060
ENDCHAR
STARTCHAR 011A
ENCODING 282
SWIDTH 480 0
DWIDTH 12 0
BBX 11 23 1 0
BITMAP
6180
3300
1E00
1C00
0000
7F00
7F00
7F00
7000
7000
7000
7000
7000
FF80
FF80
7000
7000
7000
7000
7000
7000
7FE0
7FE0
ENDCHAR
STARTCHAR 011B
ENCODING 283
SWIDTH 480 0
DWIDTH 12 0
BBX 11 23 1 0
BITMAP
6180
3300
1E00
1C00
0000
7F00
7F00
7F00
7000
7000
7000
7000
7000
FF80
FF80
7000
7000
7000
7000
7000
7000
7FE0
7FE0
ENDCHAR
STARTCHAR 011E
ENCODING 286
SWIDTH 800 0
DWIDTH 20 0
BBX 20 22 1 0
BITMAP
021000
03F000
01E000
000000
03F000
0FFC00
1F1E00
380700
700200
600000
E00000
C00000
C07FF0
C07FF0
C000C0
E001C0
E001C0
700380
780380
3C0F00
1FFE00
07F800
ENDCHAR
STARTCHAR 011F
ENCODING 287
SWIDTH 800 0
DWIDTH 20 0
BBX 20 22 1 0
BITMAP
021000
03F000
01E000
000000
03F000
0FFC00
1F1E00
380700
700200
600000
E00000
C00000
C07FF0
C07FF0
C000C0
E001C0
E001C0
700380
780380
3C0F00
1FFE00
07F800
ENDCHAR
STARTCHAR 0120
ENCODING 288
SWIDTH 800 0
DWIDTH 20 0
BBX 20 23 1 0
BITMAP
00C000
01E000
01E000
00C000
000000
03F000
0FFC00
1F1E00
380700
700200
600000
E00000
C00000
C07FF0
C07FF0
C000C0
E001C0
E001C0
700380
780380
3C0F00
1FFE00
07F800
ENDCHAR
STARTCHAR 0121
ENCODING 289
SWIDTH 800 0
DWIDTH 20 0
BBX 20 23 1 0
BITMAP
00C000
01E000
01E000
00C000
000000
03F000
0FFC00
1F1E00
380700
700200
600000
E00000
C00000
C07FF0
C07FF0
C000C0
E001C0
E001C0
700380
780380
3C0F00
1FFE00
07F800
ENDCHAR
STARTCHAR 0124
ENCODING 292
SWIDTH 560 0
DWIDTH 14 0
BBX 12 22 1 0
BITMAP
0700
0D80
18C0
0000
7070
7070
7070
7070
7070
7070
7070
7070
FFF0
FFF0
7070
7070
7070
7070
7070
7070
7070
7070
ENDCHAR
STARTCHAR 0125
ENCODING 293
SWIDTH 560 0
DWIDTH 14 0
BBX 12 22 1 0
BITMAP
0700
0D80
18C0
0000
7070
7070
7070
7070
7070
7070
7070
7070
FFF0
FFF0
7070
7070
7070
7070
7070
7070
7070
7070
ENDCHAR
STARTCHAR 0128
ENCODING 296
SWIDTH 200 0
DWIDTH 5 0
BBX 6 15 -1 0
BITMAP
FC
1C
00
00
38
38
38
38
38
38
38
38
38
38
38
ENDCHAR
STARTCHAR 0129
ENCODING 297
SWIDTH 200 0
DWIDTH 5 0
BBX 6 15 -1 0
BITMAP
FC
1C
00
00
38
38
38
38
38
38
38
38
38
38
38
ENDCHAR
STARTCHAR 012A
ENCODING 298
SWIDTH 200 0
DWIDTH 5 0
BBX 7 15 -1 0
BITMAP
FE
FE
00
00
38
38
38
38
38
38
38
38
38
38
38
ENDCHAR
STARTCHAR 012B
ENCODING 299
SWIDTH 200 0
DWIDTH 5 0
BBX 7 15 -1 0
BITMAP
FE
FE
00
00
38
38
38
38
38
38
38
38
38
38
38
ENDCHAR
STARTCHAR 012E
ENCODING 302
SWIDTH 160 0
DWIDTH 4 0
BBX 7 25 -1 -5
BITMAP
10
10
FE
78
38
28
00
00
00
38
38
38
38
38
38
38
38
38
38
38
60
40
40
7C
30
ENDCHAR
STARTCHAR 012F
ENCODING 303
SWIDTH 160 0
DWIDTH 4 0
BBX 7 25 -1 -5
BITMAP
10
10
FE
78
38
28
00
00
00
38
38
38
38
38
38
38
38
38
38
38
60
40
40
7C
30
ENDCHAR
STARTCHAR 0130
ENCODING 304
SWIDTH 200 0
DWIDTH 5 0
BBX 3 16 1 0
BITMAP
E0
E0
E0
00
00
E0
E0
E0
E0
E0
E0
E0
E0
E0
E0
E0
ENDCHAR
STARTCHAR 0139
ENCODING 313
SWIDTH 400 0
DWIDTH 10 0
BBX 9 22 1 0
BITMAP
3000
6000
4000
0000
E000
E000
E000
E000
E000
E000
E000
E000
E000
E000
E000
E000
E000
E000
E000
E000
FF80
FF80
ENDCHAR
STARTCHAR 013A
ENCODING 314
SWIDTH 400 0
DWIDTH 10 0
BBX 9 22 1 0
BITMAP
3000
6000
4000
0000
E000
E000
E000
E000
E000
E000
E000
E000
E000
E000
E000
E000
E000
E000
E000
E000
FF80
FF80
ENDCHAR
STARTCHAR 013D
ENCODING 317
SWIDTH 400 0
DWIDTH 10 0
BBX 11 23 -1 0
BITMAP
C600
6C00
6C00
3800
0000
3800
3800
3800
3800
3800
3800
3800
3800
3800
3800
3800
3800
3800
3800
3800
3800
3FE0
3FE0
ENDCHAR
STARTCHAR 013E
ENCODING 318
SWIDTH 400 0
DWIDTH 10 0
BBX 11 23 -1 0
BITMAP
C600
6C00
6C00
3800
0000
3800
3800
3800
3800
3800
3800
3800
3800
3800
3800
3800
3800
3800
3800
3800
3800
3FE0
3FE0
ENDCHAR
STARTCHAR 0141
ENCODING 321
SWIDTH 480 0
DWIDTH 12 0
BBX 12 18 0 0
BITMAP
1800
1800
1800
1800
1800
1800
1900
1F00
1E00
3800
F800
1800
1800
1800
1800
1800
1FF0
1FF0
ENDCHAR
STARTCHAR 0142
ENCODING 322
SWIDTH 480 0
DWIDTH 12 0
BBX 12 18 0 0
BITMAP
1800
1800
1800
1800
1800
1800
1900
1F00
1E00
3800
F800
1800
1800
1800
1800
1800
1FF0
1FF0
ENDCHAR
STARTCHAR 0143
ENCODING 323
SWIDTH 520 0
DWIDTH 13 0
BBX 11 22 1 0
BITMAP
0300
0600
0400
0000
80E0
E0E0
F0E0
F8E0
FEE0
EFE0
E7E0
E1E0
E0E0
E0E0
E0E0
E0E0
E0E0
E0E0
E0E0
E0E0
E0E0
E0E0
ENDCHAR
STARTCHAR 0144
ENCODING 324
SWIDTH 520 0
DWIDTH 13 0
BBX 11 22 1 0
BITMAP
0300
0600
0400
0000
80E0
E0E0
F0E0
F8E0
FEE0
EFE0
E7E0
E1E0
E0E0
E0E0
E0E0
E0E0
E0E0
E0E0
E0E0
E0E0
E0E0
E0E0
ENDCHAR
STARTCHAR 0147
ENCODING 327
SWIDTH 520 0
DWIDTH 13 0
BBX 11 23 1 0
BITMAP
3180
1B80
1B00
0E00
0000
80E0
E0E0
F0E0
F8E0
FEE0
EFE0
E7E0
E1E0
E0E0
E0E0
E0E0
E0E0
E0E0
E0E0
E0E0
E0E0
E0E0
E0E0
ENDCHAR
STARTCHAR 0148
ENCODING 328
SWIDTH 520 0
DWIDTH 13 0
BBX 11 23 1 0
BITMAP
3180
1B80
1B00
0E00
0000
80E0
E0E0
F0E0
F8E0
FEE0
EFE0
E7E0
E1E0
E0E0
E0E0
E0E0
E0E0
E0E0
E0E0
E0E0
E0E0
E0E0
E0E0
ENDCHAR
STARTCHAR 014C
ENCODING 332
SWIDTH 800 0
DWIDTH 20 0
BBX 19 22 1 0
BITMAP
03F800
03F800
000000
000000
03F000
0FFC00
1F1F00
380780
700380
6001C0
E000C0
C000C0
C000E0
C000E0
C000C0
E000C0
E001C0
7001C0
780380
3C0F00
1FFE00
07F800
ENDCHAR
STARTCHAR 014D
ENCODING 333
SWIDTH 800 0
DWIDTH 20 0
BBX 19 22 1 0
BITMAP
03F800
03F800
000000
000000
03F000
0FFC00
1F1F00
380780
700380
6001C0
E000C0
C000C0
C000E0
C000E0
C000C0
E000C0
E001C0
7001C0
780380
3C0F00
1FFE00
07F800
ENDCHAR
STARTCHAR 0150
ENCODING 336
SWIDTH 800 0
DWIDTH 20 0
BBX 19 22 1 0
BITMAP
018C00
019800
031000
000000
03F000
0FFC00
1F1F00
380780
700380
6001C0
E000C0
C000C0
C000E0
C000E0
C000C0
E000C0
E001C0
7001C0
780380
3C0F00
1FFE00
07F800
ENDCHAR
STARTCHAR 0151
ENCODING 337
SWIDTH 800 0
DWIDTH 20 0
BBX 19 22 1 0
BITMAP
018C00
019800
031000
000000
03F000
0FFC00
1F1F00
380780
700380
6001C0
E000C0
C000C0
C000E0
C000E0
C000C0
E000C0
E001C0
7001C0
780380
3C0F00
1FFE00
07F800
ENDCHAR
STARTCHAR 0154
ENCODING 340
SWIDTH 560 0
DWIDTH 14 0
BBX 13 22 1 0
BITMAP
0300
0300
0600
0000
7C00
7FE0
7FF0
7070
7038
7038
7038
7038
7070
FFE0
FFC0
70E0
7070
7070
7030
7030
7030
7030
ENDCHAR
STARTCHAR 0155
ENCODING 341
SWIDTH 560 0
DWIDTH 14 0
BBX 13 22 1 0
BITMAP
0300
0300
0600
0000
7C00
7FE0
7FF0
7070
7038
7038
7038
7038
7070
FFE0
FFC0
70E0
7070
7070
7030
7030
7030
7030
ENDCHAR
STARTCHAR 0158
ENCODING 344
SWIDTH 560 0
DWIDTH 14 0
BBX 13 23 1 0
BITMAP
30C0
1980
0F00
0700
0000
7C00
7FE0
7FF0
7070
7038
7038
7038
7038
7070
FFE0
FFC0
70E0
7070
7070
7030
7030
7030
7030
ENDCHAR
STARTCHAR 0159
ENCODING 345
SWIDTH 560 0
DWIDTH 14 0
BBX 13 23 1 0
BITMAP
30C0
1980
0F00
0700
0000
7C00
7FE0
7FF0
7070
7038
7038
7038
7038
7070
FFE0
FFC0
70E0
7070
7070
7030
7030
7030
7030
ENDCHAR
STARTCHAR 015A
ENCODING 346
SWIDTH 480 0
DWIDTH 12 0
BBX 11 22 1 0
BITMAP
0600
0600
0C00
0000
1E00
3F80
73C0
61C0
E0C0
6000
7000
3C00
1E00
0F80
03C0
01C0
00E0
C0E0
E0E0
E1C0
7FC0
3F80
ENDCHAR
STARTCHAR 015B
ENCODING 347
SWIDTH 480 0
DWIDTH 12 0
BBX 11 22 1 0
BITMAP
0600
0600
0C00
0000
1E00
3F80
73C0
61C0
E0C0
6000
7000
3C00
1E00
0F80
03C0
01C0
00E0
C0E0
E0E0
E1C0
7FC0
3F80
ENDCHAR
STARTCHAR 015E
ENCODING 350
SWIDTH 480 0
DWIDTH 12 0
BBX 11 23 1 -5
BITMAP
1E00
3F80
73C0
61C0
E0C0
6000
7000
3C00
1E00
0F80
03C0
01C0
00E0
C0E0
E0E0
E1C0
7FC0
3F80
0400
0E00
0200
3200
1E00
ENDCHAR
STARTCHAR 015F
ENCODING 351
SWIDTH 480 0
DWIDTH 12 0
BBX 11 23 1 -5
BITMAP
1E00
3F80
73C0
61C0
E0C0
6000
7000
3C00
1E00
0F80
03C0
01C0
00E0
C0E0
E0E0
E1C0
7FC0
3F80
0400
0E00
0200
3200
1E00
ENDCHAR
STARTCHAR 0160
ENCODING 352
SWIDTH 480 0
DWIDTH 12 0
BBX 11 23 1 0
BITMAP
6180
3300
1E00
0E00
0000
1E00
3F80
73C0
61C0
E0C0
6000
7000
3C00
1E00
0F80
03C0
01C0
00E0
C0E0
E0E0
E1C0
7FC0
3F80
ENDCHAR
STARTCHAR 0161
ENCODING 353
SWIDTH 480 0
DWIDTH 12 0
BBX 11 23 1 0
BITMAP
6180
3300
1E00
0E00
0000
1E00
3F80
73C0
61C0
E0C0
6000
7000
3C00
1E00
0F80
03C0
01C0
00E0
C0E0
E0E0
E1C0
7FC0
3F80
ENDCHAR
STARTCHAR 0162
ENCODING 354
SWIDTH 480 0
DWIDTH 12 0
BBX 11 23 1 -5
BITMAP
FFE0
FFE0
FFE0
0C00
0C00
0C00
0C00
0C00
0C00
0C00
0C00
0C00
0C00
0C00
0C00
0C00
0C00
0C00
0C00
0E00
0200
2200
1E00
ENDCHAR
STARTCHAR 0163
ENCODING 355
SWIDTH 480 0
DWIDTH 12 0
BBX 11 23 1 -5
BITMAP
FFE0
FFE0
FFE0
0C00
0C00
0C00
0C00
0C00
0C00
0C00
0C00
0C00
0C00
0C00
0C00
0C00
0C00
0C00
0C00
0E00
0200
2200
1E00
ENDCHAR
STARTCHAR 0164
ENCODING 356
SWIDTH 480 0
DWIDTH 12 0
BBX 11 23 1 0
BITMAP
3180
3300
1F00
0E00
0000
FFE0
FFE0
FFE0
0C00
0C00
0C00
0C00
0C00
0C00
0C00
0C00
0C00
0C00
0C00
0C00
0C00
0C00
0C00
ENDCHAR
STARTCHAR 0165
ENCODING 357
SWIDTH 480 0
DWIDTH 12 0
BBX 11 23 1 0
BITMAP
3180
3300
1F00
0E00
0000
FFE0
FFE0
FFE0
0C00
0C00
0C00
0C00
0C00
0C00
0C00
0C00
0C00
0C00
0C00
0C00
0C00
0C00
0C00
ENDCHAR
STARTCHAR 0168
ENCODING 360
SWIDTH 480 0
DWIDTH 12 0
BBX 11 22 1 0
BITMAP
3F00
2F00
0000
0000
C0E0
C0E0
C0E0
C0E0
C0E0
C0E0
C0E0
C0E0
C0E0
C0E0
C0E0
C0E0
C0E0
E0E0
E0C0
71C0
7F80
3F00
ENDCHAR
STARTCHAR 0169
ENCODING 361
SWIDTH 480 0
DWIDTH 12 0
BBX 11 22 1 0
BITMAP
3F00
2F00
0000
0000
C0E0
C0E0
C0E0
C0E0
C0E0
C0E0
C0E0
C0E0
C0E0
C0E0
C0E0
C0E0
C0E0
E0E0
E0C0
71C0
7F80
3F00
ENDCHAR
STARTCHAR 016A
ENCODING 362
SWIDTH 480 0
DWIDTH 12 0
BBX 11 22 1 0
BITMAP
3F80
3F80
0000
0000
C0E0
C0E0
C0E0
C0E0
C0E0
C0E0
C0E0
C0E0
C0E0
C0E0
C0E0
C0E0
C0E0
E0E0
E0C0
71C0
7F80
3F00
ENDCHAR
STARTCHAR 016B
ENCODING 363
SWIDTH 480 0
DWIDTH 12 0
BBX 11 22 1 0
BITMAP
3F80
3F80
0000
0000
C0E0
C0E0
C0E0
C0E0
C0E0
C0E0
C0E0
C0E0
C0E0
C0E0
C0E0
C0E0
C0E0
E0E0
E0C0
71C0
7F80
3F00
ENDCHAR
STARTCHAR 016E
ENCODING 366
SWIDTH 480 0
DWIDTH 12 0
BBX 11 24 1 0
BITMAP
0E00
1B00
1100
1B00
0E00
0000
C0E0
C0E0
C0E0
C0E0
C0E0
C0E0
C0E0
C0E0
C0E0
C0E0
C0E0
C0E0
C0E0
E0E0
E0C0
71C0
7F80
3F00
ENDCHAR
STARTCHAR 016F
ENCODING 367
SWIDTH 480 0
DWIDTH 12 0
BBX 11 24 1 0
BITMAP
0E00
1B00
1100
1B00
0E00
0000
C0E0
C0E0
C0E0
C0E0
C0E0
C0E0
C0E0
C0E0
C0E0
C0E0
C0E0
C0E0
C0E0
E0E0
E0C0
71C0
7F80
3F00
ENDCHAR
STARTCHAR 0170
ENCODING 368
SWIDTH 480 0
DWIDTH 12 0
BBX 11 22 1 0
BITMAP
0CC0
1980
3100
0000
C0E0
C0E0
C0E0
C0E0
C0E0
C0E0
C0E0
C0E0
C0E0
C0E0
C0E0
C0E0
C0E0
E0E0
E0C0
71C0
7F80
3F00
ENDCHAR
STARTCHAR 0171
ENCODING 369
SWIDTH 480 0
DWIDTH 12 0
BBX 11 22 1 0
BITMAP
0CC0
1980
3100
0000
C0E0
C0E0
C0E0
C0E0
C0E0
C0E0
C0E0
C0E0
C0E0
C0E0
C0E0
C0E0
C0E0
E0E0
E0C0
71C0
7F80
3F00
ENDCHAR
STARTCHAR 0172
ENCODING 370
SWIDTH 480 0
DWIDTH 12 0
BBX 11 23 1 -5
BITMAP
C0E0
C0E0
C0E0
C0E0
C0E0
C0E0
C0E0
C0E0
C0E0
C0E0
C0E0
C0E0
C0E0
E0E0
E0C0
71C0
7F80
3F00
0C00
1800
1800
1F00
0600
ENDCHAR
STARTCHAR 0173
ENCODING 371
SWIDTH 480 0
DWIDTH 12 0
BBX 11 23 1 -5
BITMAP
C0E0
C0E0
C0E0
C0E0
C0E0
C0E0
C0E0
C0E0
C0E0
C0E0
C0E0
C0E0
C0E0
E0E0
E0C0
71C0
7F80
3F00
0C00
1800
1800
1F00
0600
ENDCHAR
STARTCHAR 0176
ENCODING 374
SWIDTH 480 0
DWIDTH 12 0
BBX 11 22 1 0
BITMAP
1E00
1B00
3180
0000
C0E0
C0E0
C0E0
C0E0
C0E0
C0E0
C0E0
C0E0
C0E0
E0C0
E0C0
73C0
3F80
1E00
0C00
0C00
0C00
0C00
ENDCHAR
STARTCHAR 0177
ENCODING 375
SWIDTH 480 0
DWIDTH 12 0
BBX 11 22 1 0
BITMAP
1E00
1B00
3180
0000
C0E0
C0E0
C0E0
C0E0
C0E0
C0E0
C0E0
C0E0
C0E0
E0C0
E0C0
73C0
3F80
1E00
0C00
0C00
0C00
0C00
ENDCHAR
STARTCHAR 0178
ENCODING 376
SWIDTH 480 0
DWIDTH 12 0
BBX 11 22 1 0
BITMAP
71C0
73C0
71C0
0000
C0E0
C0E0
C0E0
C0E0
C0E0
C0E0
C0E0
C0E0
C0E0
E0C0
E0C0
73C0
3F80
1E00
0C00
0C00
0C00
0C00
ENDCHAR
STARTCHAR 0179
ENCODING 377
SWIDTH 480 0
DWIDTH 12 0
BBX 11 22 1 0
BITMAP
0300
0600
0400
0000
FFE0
FFE0
FFE0
01C0
0180
0380
0300
0700
0E00
0C00
1C00
1800
3800
7000
6000
E000
FFE0
FFE0
ENDCHAR
STARTCHAR 017A
ENCODING 378
SWIDTH 480 0
DWIDTH 12 0
BBX 11 22 1 0
BITMAP
0300
0600
0400
0000
FFE0
FFE0
FFE0
01C0
0180
0380
0300
0700
0E00
0C00
1C00
1800
3800
7000
6000
E000
FFE0
FFE0
ENDCHAR
STARTCHAR 017B
ENCODING 379
SWIDTH 480 0
DWIDTH 12 0
BBX 11 23 1 0
BITMAP
0E00
0E00
0E00
0400
0000
FFE0
FFE0
FFE0
01C0
0180
0380
0300
0700
0E00
0C00
1C00
1800
3800
7000
6000
E000
FFE0
FFE0
ENDCHAR
STARTCHAR 017C
ENCODING 380
SWIDTH 480 0
DWIDTH 12 0
BBX 11 23 1 0
BITMAP
0E00
0E00
0E00
0400
0000
FFE0
FFE0
FFE0
01C0
0180
0380
0300
0700
0E00
0C00
1C00
1800
3800
7000
6000
E000
FFE0
FFE0
ENDCHAR
STARTCHAR 017D
ENCODING 381
SWIDTH 480 0
DWIDTH 12 0
BBX 11 23 1 0
BITMAP
3180
3B00
1B00
0E00
0000
FFE0
FFE0
FFE0
01C0
0180
0380
0300
0700
0E00
0C00
1C00
1800
3800
7000
6000
E000
FFE0
FFE0
ENDCHAR
STARTCHAR 017E
ENCODING 382
SWIDTH 480 0
DWIDTH 12 0
BBX 11 23 1 0
BITMAP
3180
3B00
1B00
0E00
0000
FFE0
FFE0
FFE0
01C0
0180
0380
0300
0700
0E00
0C00
1C00
1800
3800
7000
6000
E000
FFE0
FFE0
ENDCHAR
STARTCHAR 01A0
ENCODING 416
SWIDTH 800 0
DWIDTH 20 0
BBX 19 20 1 0
BITMAP
000180
000100
03F300
0FFE00
1F1F00
380780
700380
6001C0
E000C0
C000C0
C000E0
C000E0
C000C0
E000C0
E001C0
7001C0
780380
3C0F00
1FFE00
07F800
ENDCHAR
STARTCHAR 01A1
ENCODING 417
SWIDTH 800 0
DWIDTH 20 0
BBX 19 20 1 0
BITMAP
000180
000100
03F300
0FFE00
1F1F00
380780
700380
6001C0
E000C0
C000C0
C000E0
C000E0
C000C0
E000C0
E001C0
7001C0
780380
3C0F00
1FFE00
07F800
ENDCHAR
STARTCHAR 01AF
ENCODING 431
SWIDTH 480 0
DWIDTH 12 0
BBX 13 20 1 0
BITMAP
0018
0010
C0F0
C0E0
C0E0
C0E0
C0E0
C0E0
C0E0
C0E0
C0E0
C0E0
C0E0
C0E0
C0E0
E0E0
E0C0
71C0
7F80
3F00
ENDCHAR
STARTCHAR 01B0
ENCODING 432
SWIDTH 480 0
DWIDTH 12 0
BBX 13 20 1 0
BITMAP
0018
0010
C0F0
C0E0
C0E0
C0E0
C0E0
C0E0
C0E0
C0E0
C0E0
C0E0
C0E0
C0E0
C0E0
E0E0
E0C0
71C0
7F80
3F00
ENDCHAR
STARTCHAR 01CD
ENCODING 461
SWIDTH 520 0
DWIDTH 13 0
BBX 13 23 1 0
BITMAP
3180
1B80
1B00
0E00
0000
1E00
3F80
7BC0
60C0
E0E0
E0E0
E0E0
E0E0
E0E0
E0E0
E0E0
E0E0
E0E0
E0E0
E0E0
E0E0
FFF8
FFF8
ENDCHAR
STARTCHAR 01CE
ENCODING 462
SWIDTH 520 0
DWIDTH 13 0
BBX 13 23 1 0
BITMAP
3180
1B80
1B00
0E00
0000
1E00
3F80
7BC0
60C0
E0E0
E0E0
E0E0
E0E0
E0E0
E0E0
E0E0
E0E0
E0E0
E0E0
E0E0
E0E0
FFF8
FFF8
ENDCHAR
STARTCHAR 01CF
ENCODING 463
SWIDTH 200 0
DWIDTH 5 0
BBX 7 16 -1 0
BITMAP
C6
6C
7C
00
00
38
38
38
38
38
38
38
38
38
38
38
ENDCHAR
STARTCHAR 01D0
ENCODING 464
SWIDTH 200 0
DWIDTH 5 0
BBX 7 16 -1 0
BITMAP
C6
6C
7C
00
00
38
38
38
38
38
38
38
38
38
38
38
ENDCHAR
STARTCHAR 01D1
ENCODING 465
SWIDTH 800 0
DWIDTH 20 0
BBX 19 23 1 0
BITMAP
061800
033000
01E000
00E000
000000
03F000
0FFC00
1F1F00
380780
700380
6001C0
E000C0
C000C0
C000E0
C000E0
C000C0
E000C0
E001C0
7001C0
780380
3C0F00
1FFE00
07F800
ENDCHAR
STARTCHAR 01D2
ENCODING 466
SWIDTH 800 0
DWIDTH 20 0
BBX 19 23 1 0
BITMAP
061800
033000
01E000
00E000
000000
03F000
0FFC00
1F1F00
380780
700380
6001C0
E000C0
C000C0
C000E0
C000E0
C000C0
E000C0
E001C0
7001C0
780380
3C0F00
1FFE00
07F800
ENDCHAR
STARTCHAR 01D3
ENCODING 467
SWIDTH 480 0
DWIDTH 12 0
BBX 11 23 1 0
BITMAP
3180
3300
1F00
0E00
0000
C0E0
C0E0
C0E0
C0E0
C0E0
C0E0
C0E0
C0E0
C0E0
C0E0
C0E0
C0E0
C0E0
E0E0
E0C0
71C0
7F80
3F00
ENDCHAR
STARTCHAR 01D4
ENCODING 468
SWIDTH 480 0
DWIDTH 12 0
BBX 11 23 1 0
BITMAP
3180
3300
1F00
0E00
0000
C0E0
C0E0
C0E0
C0E0
C0E0
C0E0
C0E0
C0E0
C0E0
C0E0
C0E0
C0E0
C0E0
E0E0
E0C0
71C0
7F80
3F00
ENDCHAR
STARTCHAR 02C6
ENCODING 710
SWIDTH 280 0
DWIDTH 7 0
BBX 7 3 0 19
BITMAP
3C
6C
C6
ENDCHAR
STARTCHAR 02C7
ENCODING 711
SWIDTH 280 0
DWIDTH 7 0
BBX 8 4 0 19
BITMAP
C3
66
3C
38
ENDCHAR
STARTCHAR 02D8
ENCODING 728
SWIDTH 240 0
DWIDTH 6 0
BBX 7 3 0 19
BITMAP
C6
6C
38
ENDCHAR
STARTCHAR 02D9
ENCODING 729
SWIDTH 120 0
DWIDTH 3 0
BBX 4 3 0 19
BITMAP
60
F0
F0
ENDCHAR
STARTCHAR 02DA
ENCODING 730
SWIDTH 200 0
DWIDTH 5 0
BBX 5 5 0 19
BITMAP
70
D8
88
D8
70
ENDCHAR
STARTCHAR 02DB
ENCODING 731
SWIDTH 160 0
DWIDTH 4 0
BBX 5 5 0 -5
BITMAP
60
C0
80
F8
20
ENDCHAR
STARTCHAR 02DC
ENCODING 732
SWIDTH 200 0
DWIDTH 5 0
BBX 6 2 0 20
BITMAP
FC
BC
ENDCHAR
STARTCHAR 02DD
ENCODING 733
SWIDTH 320 0
DWIDTH 8 0
BBX 8 3 0 19
BITMAP
63
66
C4
ENDCHAR
STARTCHAR 0300
ENCODING 768
SWIDTH 0 0
DWIDTH 0 0
BBX 3 3 -3 19
BITMAP
C0
C0
60
ENDCHAR
STARTCHAR 0301
ENCODING 769
SWIDTH 0 0
DWIDTH 0 0
BBX 4 3 -4 19
BITMAP
30
60
C0
ENDCHAR
STARTCHAR 0302
ENCODING 770
SWIDTH 0 0
DWIDTH 0 0
BBX 7 3 -7 19
BITMAP
78
6C
C6
ENDCHAR
STARTCHAR 0303
ENCODING 771
SWIDTH 0 0
DWIDTH 0 0
BBX 6 2 -6 20
BITMAP
FC
BC
ENDCHAR
STARTCHAR 0304
ENCODING 772
SWIDTH 0 0
DWIDTH 0 0
BBX 7 2 -7 20
BITMAP
FE
FE
ENDCHAR
STARTCHAR 0306
ENCODING 774
SWIDTH 0 0
DWIDTH 0 0
BBX 7 3 -7 19
BITMAP
C6
6C
38
ENDCHAR
STARTCHAR 0307
ENCODING 775
SWIDTH 0 0
DWIDTH 0 0
BBX 4 3 -4 19
BITMAP
70
F0
70
ENDCHAR
STARTCHAR 0308
ENCODING 776
SWIDTH 0 0
DWIDTH 0 0
BBX 9 3 -9 19
BITMAP
E380
F780
E380
ENDCHAR
STARTCHAR 0309
ENCODING 777
SWIDTH 0 0
DWIDTH 0 0
BBX 2 5 -2 19
BITMAP
C0
C0
C0
80
C0
ENDCHAR
STARTCHAR 030A
ENCODING 778
SWIDTH 0 0
DWIDTH 0 0
BBX 5 5 -5 19
BITMAP
70
D8
88
D8
70
ENDCHAR
STARTCHAR 030B
ENCODING 779
SWIDTH 0 0
DWIDTH 0 0
BBX 8 3 -8 19
BITMAP
63
46
CC
ENDCHAR
STARTCHAR 030C
ENCODING 780
SWIDTH 0 0
DWIDTH 0 0
BBX 8 4 -8 19
BITMAP
C3
66
3C
1C
ENDCHAR
STARTCHAR 031B
ENCODING 795
SWIDTH 0 0
DWIDTH 0 0
BBX 3 3 -3 17
BITMAP
60
60
C0
ENDCHAR
STARTCHAR 0323
ENCODING 803
SWIDTH 0 0
DWIDTH 0 0
BBX 4 4 -4 -7
BITMAP
60
F0
F0
60
ENDCHAR
STARTCHAR 0326
ENCODING 806
SWIDTH 0 0
DWIDTH 0 0
BBX 4 5 -4 -6
BITMAP
30
30
60
60
C0
ENDCHAR
STARTCHAR 0327
ENCODING 807
SWIDTH 0 0
DWIDTH 0 0
BBX 5 5 -5 -5
BITMAP
20
30
08
88
F8
ENDCHAR
STARTCHAR 0328
ENCODING 808
SWIDTH 0 0
DWIDTH 0 0
BBX 5 5 -5 -5
BITMAP
60
C0
80
F8
30
ENDCHAR
STARTCHAR 0335
ENCODING 821
SWIDTH 0 0
DWIDTH 0 0
BBX 8 2 -8 4
BITMAP
FF
FF
ENDCHAR
STARTCHAR 1EA0
ENCODING 7840
SWIDTH 520 0
DWIDTH 13 0
BBX 13 25 1 -7
BITMAP
1E00
3F80
7BC0
60C0
E0E0
E0E0
E0E0
E0E0
E0E0
E0E0
E0E0
E0E0
E0E0
E0E0
E0E0
E0E0
FFF8
FFF8
0000
0000
0000
0E00
0E00
0E00
0600
ENDCHAR
STARTCHAR 1EA1
ENCODING 7841
SWIDTH 520 0
DWIDTH 13 0
BBX 13 25 1 -7
BITMAP
1E00
3F80
7BC0
60C0
E0E0
E0E0
E0E0
E0E0
E0E0
E0E0
E0E0
E0E0
E0E0
E0E0
E0E0
E0E0
FFF8
FFF8
0000
0000
0000
0E00
0E00
0E00
0600
ENDCHAR
STARTCHAR 1EA2
ENCODING 7842
SWIDTH 520 0
DWIDTH 13 0
BBX 13 24 1 0
BITMAP
0400
0600
0400
0C00
0400
0000
1E00
3F80
7BC0
60C0
E0E0
E0E0
E0E0
E0E0
E0E0
E0E0
E0E0
E0E0
E0E0
E0E0
E0E0
E0E0
FFF8
FFF8
ENDCHAR
STARTCHAR 1EA3
ENCODING 7843
SWIDTH 520 0
DWIDTH 13 0
BBX 13 24 1 0
BITMAP
0400
0600
0400
0C00
0400
0000
1E00
3F80
7BC0
60C0
E0E0
E0E0
E0E0
E0E0
E0E0
E0E0
E0E0
E0E0
E0E0
E0E0
E0E0
E0E0
FFF8
FFF8
ENDCHAR
STARTCHAR 1EA4
ENCODING 7844
SWIDTH 520 0
DWIDTH 13 0
BBX 13 25 1 0
BITMAP
0030
0030
0060
0E40
1B00
3180
0000
1E00
3F80
7BC0
60C0
E0E0
E0E0
E0E0
E0E0
E0E0
E0E0
E0E0
E0E0
E0E0
E0E0
E0E0
E0E0
FFF8
FFF8
ENDCHAR
STARTCHAR 1EA5
ENCODING 7845
SWIDTH 520 0
DWIDTH 13 0
BBX 13 25 1 0
BITMAP
0030
0030
0060
0E40
1B00
3180
0000
1E00
3F80
7BC0
60C0
E0E0
E0E0
E0E0
E0E0
E0E0
E0E0
E0E0
E0E0
E0E0
E0E0
E0E0
E0E0
FFF8
FFF8
ENDCHAR
STARTCHAR 1EA6
ENCODING 7846
SWIDTH 520 0
DWIDTH 13 0
BBX 15 25 -1 0
BITMAP
C000
6000
2000
3380
06C0
0C60
0000
0780
0FE0
1EF0
1830
3838
3838
3838
3838
3838
3838
3838
3838
3838
3838
3838
3838
3FFE
3FFE
ENDCHAR
STARTCHAR 1EA7
ENCODING 7847
SWIDTH 520 0
DWIDTH 13 0
BBX 15 25 -1 0
BITMAP
C000
6000
2000
3380
06C0
0C60
0000
0780
0FE0
1EF0
1830
3838
3838
3838
3838
3838
3838
3838
3838
3838
3838
3838
3838
3FFE
3FFE
ENDCHAR
STARTCHAR 1EA8
ENCODING 7848
SWIDTH 520 0
DWIDTH 13 0
BBX 13 26 1 0
BITMAP
0040
0060
0040
0040
0E40
1B00
3180
0000
1E00
3F80
7BC0
60C0
E0E0
E0E0
E0E0
E0E0
E0E0
E0E0
E0E0
E0E0
E0E0
E0E0
E0E0
E0E0
FFF8
FFF8
ENDCHAR
STARTCHAR 1EA9
ENCODING 7849
SWIDTH 520 0
DWIDTH 13 0
BBX 13 26 1 0
BITMAP
0040
0060
0040
0040
0E40
1B00
3180
0000
1E00
3F80
7BC0
60C0
E0E0
E0E0
E0E0
E0E0
E0E0
E0E0
E0E0
E0E0
E0E0
E0E0
E0E0
E0E0
FFF8
FFF8
ENDCHAR
STARTCHAR 1EAA
ENCODING 7850
SWIDTH 520 0
DWIDTH 13 0
BBX 13 25 1 0
BITMAP
07A0
07E0
0000
0E00
1B00
3180
0000
1E00
3F80
7BC0
60C0
E0E0
E0E0
E0E0
E0E0
E0E0
E0E0
E0E0
E0E0
E0E0
E0E0
E0E0
E0E0
FFF8
FFF8
ENDCHAR
STARTCHAR 1EAB
ENCODING 7851
SWIDTH 520 0
DWIDTH 13 0
BBX 13 25 1 0
BITMAP
07A0
07E0
0000
0E00
1B00
3180
0000
1E00
3F80
7BC0
60C0
E0E0
E0E0
E0E0
E0E0
E0E0
E0E0
E0E0
E0E0
E0E0
E0E0
E0E0
E0E0
FFF8
FFF8
ENDCHAR
STARTCHAR 1EAC
ENCODING 7852
SWIDTH 520 0
DWIDTH 13 0
BBX 13 29 1 -7
BITMAP
0E00
1B00
3180
0000
1E00
3F80
7BC0
60C0
E0E0
E0E0
E0E0
E0E0
E0E0
E0E0
E0E0
E0E0
E0E0
E0E0
E0E0
E0E0
FFF8
FFF8
0000
0000
0000
0E00
0E00
0E00
0600
ENDCHAR
STARTCHAR 1EAD
ENCODING 7853
SWIDTH 520 0
DWIDTH 13 0
BBX 13 29 1 -7
BITMAP
0E00
1B00
3180
0000
1E00
3F80
7BC0
60C0
E0E0
E0E0
E0E0
E0E0
E0E0
E0E0
E0E0
E0E0
E0E0
E0E0
E0E0
E0E0
FFF8
FFF8
0000
0000
0000
0E00
0E00
0E00
0600
ENDCHAR
STARTCHAR 1EAE
ENCODING 7854
SWIDTH 520 0
DWIDTH 13 0
BBX 13 26 1 0
BITMAP
0180
0300
0600
0400
3180
1B00
0E00
0000
1E00
3F80
7BC0
60C0
E0E0
E0E0
E0E0
E0E0
E0E0
E0E0
E0E0
E0E0
E0E0
E0E0
E0E0
E0E0
FFF8
FFF8
ENDCHAR
STARTCHAR 1EAF
ENCODING 7855
SWIDTH 520 0
DWIDTH 13 0
BBX 13 26 1 0
BITMAP
0180
0300
0600
0400
3180
1B00
0E00
0000
1E00
3F80
7BC0
60C0
E0E0
E0E0
E0E0
E0E0
E0E0
E0E0
E0E0
E0E0
E0E0
E0E0
E0E0
E0E0
FFF8
FFF8
ENDCHAR
STARTCHAR 1EB0
ENCODING 7856
SWIDTH 520 0
DWIDTH 13 0
BBX 13 25 1 0
BITMAP
1800
0800
0C00
3180
1B00
0E00
0000
1E00
3F80
7BC0
60C0
E0E0
E0E0
E0E0
E0E0
E0E0
E0E0
E0E0
E0E0
E0E0
E0E0
E0E0
E0E0
FFF8
FFF8
ENDCHAR
STARTCHAR 1EB1
ENCODING 7857
SWIDTH 520 0
DWIDTH 13 0
BBX 13 25 1 0
BITMAP
1800
0800
0C00
3180
1B00
0E00
0000
1E00
3F80
7BC0
60C0
E0E0
E0E0
E0E0
E0E0
E0E0
E0E0
E0E0
E0E0
E0E0
E0E0
E0E0
E0E0
FFF8
FFF8
ENDCHAR
STARTCHAR 1EB2
ENCODING 7858
SWIDTH 520 0
DWIDTH 13 0
BBX 13 26 1 0
BITMAP
0600
0600
0400
0400
3780
1B00
0E00
0000
1E00
3F80
7BC0
60C0
E0E0
E0E0
E0E0
E0E0
E0E0
E0E0
E0E0
E0E0
E0E0
E0E0
E0E0
E0E0
FFF8
FFF8
ENDCHAR
STARTCHAR 1EB3
ENCODING 7859
SWIDTH 520 0
DWIDTH 13 0
BBX 13 26 1 0
BITMAP
0600
0600
0400
0400
3780
1B00
0E00
0000
1E00
3F80
7BC0
60C0
E0E0
E0E0
E0E0
E0E0
E0E0
E0E0
E0E0
E0E0
E0E0
E0E0
E0E0
E0E0
FFF8
FFF8
ENDCHAR
STARTCHAR 1EB4
ENCODING 7860
SWIDTH 520 0
DWIDTH 13 0
BBX 13 25 1 0
BITMAP
1F80
1780
0000
3180
1B00
0E00
0000
1E00
3F80
7BC0
60C0
E0E0
E0E0
E0E0
E0E0
E0E0
E0E0
E0E0
E0E0
E0E0
E0E0
E0E0
E0E0
FFF8
FFF8
ENDCHAR
STARTCHAR 1EB5
ENCODING 7861
SWIDTH 520 0
DWIDTH 13 0
BBX 13 25 1 0
BITMAP
1F80
1780
0000
3180
1B00
0E00
0000
1E00
3F80
7BC0
60C0
E0E0
E0E0
E0E0
E0E0
E0E0
E0E0
E0E0
E0E0
E0E0
E0E0
E0E0
E0E0
FFF8
FFF8
ENDCHAR
STARTCHAR 1EB6
ENCODING 7862
SWIDTH 520 0
DWIDTH 13 0
BBX 13 29 1 -7
BITMAP
3180
1B00
0E00
0000
1E00
3F80
7BC0
60C0
E0E0
E0E0
E0E0
E0E0
E0E0
E0E0
E0E0
E0E0
E0E0
E0E0
E0E0
E0E0
FFF8
FFF8
0000
0000
0000
0E00
0E00
0E00
0600
ENDCHAR
STARTCHAR 1EB7
ENCODING 7863
SWIDTH 520 0
DWIDTH 13 0
BBX 13 29 1 -7
BITMAP
3180
1B00
0E00
0000
1E00
3F80
7BC0
60C0
E0E0
E0E0
E0E0
E0E0
E0E0
E0E0
E0E0
E0E0
E0E0
E0E0
E0E0
E0E0
FFF8
FFF8
0000
0000
0000
0E00
0E00
0E00
0600
ENDCHAR
STARTCHAR 1EB8
ENCODING 7864
SWIDTH 480 0
DWIDTH 12 0
BBX 11 25 1 -7
BITMAP
7F00
7F00
7F00
7000
7000
7000
7000
7000
FF80
FF80
7000
7000
7000
7000
7000
7000
7FE0
7FE0
0000
0000
0000
0700
0700
0700
0300
ENDCHAR
STARTCHAR 1EB9
ENCODING 7865
SWIDTH 480 0
DWIDTH 12 0
BBX 11 25 1 -7
BITMAP
7F00
7F00
7F00
7000
7000
7000
7000
7000
FF80
FF80
7000
7000
7000
7000
7000
7000
7FE0
7FE0
0000
0000
0000
0700
0700
0700
0300
ENDCHAR
STARTCHAR 1EBA
ENCODING 7866
SWIDTH 480 0
DWIDTH 12 0
BBX 11 24 1 0
BITMAP
0C00
0C00
0C00
0800
0800
0000
7F00
7F00
7F00
7000
7000
7000
7000
7000
FF80
FF80
7000
7000
7000
7000
7000
7000
7FE0
7FE0
ENDCHAR
STARTCHAR 1EBB
ENCODING 7867
SWIDTH 480 0
DWIDTH 12 0
BBX 11 24 1 0
BITMAP
0C00
0C00
0C00
0800
0800
0000
7F00
7F00
7F00
7000
7000
7000
7000
7000
FF80
FF80
7000
7000
7000
7000
7000
7000
7FE0
7FE0
ENDCHAR
STARTCHAR 1EBC
ENCODING 7868
SWIDTH 480 0
DWIDTH 12 0
BBX 11 22 1 0
BITMAP
7E00
7E00
0000
0000
7F00
7F00
7F00
7000
7000
7000
7000
7000
FF80
FF80
7000
7000
7000
7000
7000
7000
7FE0
7FE0
ENDCHAR
STARTCHAR 1EBD
ENCODING 7869
SWIDTH 480 0
DWIDTH 12 0
BBX 11 22 1 0
BITMAP
7E00
7E00
0000
0000
7F00
7F00
7F00
7000
7000
7000
7000
7000
FF80
FF80
7000
7000
7000
7000
7000
7000
7FE0
7FE0
ENDCHAR
STARTCHAR 1EBE
ENCODING 7870
SWIDTH 480 0
DWIDTH 12 0
BBX 12 25 1 0
BITMAP
0030
0060
0040
1EC0
3700
6300
0000
7F00
7F00
7F00
7000
7000
7000
7000
7000
FF80
FF80
7000
7000
7000
7000
7000
7000
7FE0
7FE0
ENDCHAR
STARTCHAR 1EBF
ENCODING 7871
SWIDTH 480 0
DWIDTH 12 0
BBX 12 25 1 0
BITMAP
0030
0060
0040
1EC0
3700
6300
0000
7F00
7F00
7F00
7000
7000
7000
7000
7000
FF80
FF80
7000
7000
7000
7000
7000
7000
7FE0
7FE0
ENDCHAR
STARTCHAR 1EC0
ENCODING 7872
SWIDTH 480 0
DWIDTH 12 0
BBX 14 25 -2 0
BITMAP
C000
6000
3000
13C0
06E0
0C60
0000
0FE0
0FE0
0FE0
0E00
0E00
0E00
0E00
0E00
1FF0
1FF0
0E00
0E00
0E00
0E00
0E00
0E00
0FFC
0FFC
ENDCHAR
STARTCHAR 1EC1
ENCODING 7873
SWIDTH 480 0
DWIDTH 12 0
BBX 14 25 -2 0
BITMAP
C000
6000
3000
13C0
06E0
0C60
0000
0FE0
0FE0
0FE0
0E00
0E00
0E00
0E00
0E00
1FF0
1FF0
0E00
0E00
0E00
0E00
0E00
0E00
0FFC
0FFC
ENDCHAR
STARTCHAR 1EC2
ENCODING 7874
SWIDTH 480 0
DWIDTH 12 0
BBX 11 26 1 0
BITMAP
00C0
00C0
00C0
0080
1E80
3700
6300
0000
7F00
7F00
7F00
7000
7000
7000
7000
7000
FF80
FF80
7000
7000
7000
7000
7000
7000
7FE0
7FE0
ENDCHAR
STARTCHAR 1EC3
ENCODING 7875
SWIDTH 480 0
DWIDTH 12 0
BBX 11 26 1 0
BITMAP
00C0
00C0
00C0
0080
1E80
3700
6300
0000
7F00
7F00
7F00
7000
7000
7000
7000
7000
FF80
FF80
7000
7000
7000
7000
7000
7000
7FE0
7FE0
ENDCHAR
STARTCHAR 1EC4
ENCODING 7876
SWIDTH 480 0
DWIDTH 12 0
BBX 11 25 1 0
BITMAP
07A0
07E0
0000
1E00
3700
6300
0000
7F00
7F00
7F00
7000
7000
7000
7000
7000
FF80
FF80
7000
7000
7000
7000
7000
7000
7FE0
7FE0
ENDCHAR
STARTCHAR 1EC5
ENCODING 7877
SWIDTH 480 0
DWIDTH 12 0
BBX 11 25 1 0
BITMAP
07A0
07E0
0000
1E00
3700
6300
0000
7F00
7F00
7F00
7000
7000
7000
7000
7000
FF80
FF80
7000
7000
7000
7000
7000
7000
7FE0
7FE0
ENDCHAR
STARTCHAR 1EC6
ENCODING 7878
SWIDTH 480 0
DWIDTH 12 0
BBX 11 29 1 -7
BITMAP
1E00
3700
6300
0000
7F00
7F00
7F00
7000
7000
7000
7000
7000
FF80
FF80
7000
7000
7000
7000
7000
7000
7FE0
7FE0
0000
0000
0000
0700
0700
0700
0300
ENDCHAR
STARTCHAR 1EC7
ENCODING 7879
SWIDTH 480 0
DWIDTH 12 0
BBX 11 29 1 -7
BITMAP
1E00
3700
6300
0000
7F00
7F00
7F00
7000
7000
7000
7000
7000
FF80
FF80
7000
7000
7000
7000
7000
7000
7FE0
7FE0
0000
0000
0000
0700
0700
0700
0300
ENDCHAR
STARTCHAR 1EC8
ENCODING 7880
SWIDTH 200 0
DWIDTH 5 0
BBX 3 17 1 0
BITMAP
40
40
40
C0
40
00
E0
E0
E0
E0
E0
E0
E0
E0
E0
E0
E0
ENDCHAR
STARTCHAR 1EC9
ENCODING 7881
SWIDTH 200 0
DWIDTH 5 0
BBX 3 17 1 0
BITMAP
40
40
40
C0
40
00
E0
E0
E0
E0
E0
E0
E0
E0
E0
E0
E0
ENDCHAR
STARTCHAR 1ECA
ENCODING 7882
SWIDTH 160 0
DWIDTH 4 0
BBX 7 27 -1 -7
BITMAP
10
10
FE
78
38
28
00
00
00
38
38
38
38
38
38
38
38
38
38
38
00
00
00
38
38
38
10
ENDCHAR
STARTCHAR 1ECB
ENCODING 7883
SWIDTH 160 0
DWIDTH 4 0
BBX 7 27 -1 -7
BITMAP
10
10
FE
78
38
28
00
00
00
38
38
38
38
38
38
38
38
38
38
38
00
00
00
38
38
38
10
ENDCHAR
STARTCHAR 1ECC
ENCODING 7884
SWIDTH 800 0
DWIDTH 20 0
BBX 19 25 1 -7
BITMAP
03F000
0FFC00
1F1F00
380780
700380
6001C0
E000C0
C000C0
C000E0
C000E0
C000C0
E000C0
E001C0
7001C0
780380
3C0F00
1FFE00
07F800
000000
000000
000000
00C000
01E000
01E000
00C000
ENDCHAR
STARTCHAR 1ECD
ENCODING 7885
SWIDTH 800 0
DWIDTH 20 0
BBX 19 25 1 -7
BITMAP
03F000
0FFC00
1F1F00
380780
700380
6001C0
E000C0
C000C0
C000E0
C000E0
C000C0
E000C0
E001C0
7001C0
780380
3C0F00
1FFE00
07F800
000000
000000
000000
00C000
01E000
01E000
00C000
ENDCHAR
STARTCHAR 1ECE
ENCODING 7886
SWIDTH 800 0
DWIDTH 20 0
BBX 19 24 1 0
BITMAP
00C000
004000
00C000
00C000
00C000
000000
03F000
0FFC00
1F1F00
380780
700380
6001C0
E000C0
C000C0
C000E0
C000E0
C000C0
E000C0
E001C0
7001C0
780380
3C0F00
1FFE00
07F800
ENDCHAR
STARTCHAR 1ECF
ENCODING 7887
SWIDTH 800 0
DWIDTH 20 0
BBX 19 24 1 0
BITMAP
00C000
004000
00C000
00C000
00C000
000000
03F000
0FFC00
1F1F00
380780
700380
6001C0
E000C0
C000C0
C000E0
C000E0
C000C0
E000C0
E001C0
7001C0
780380
3C0F00
1FFE00
07F800
ENDCHAR
STARTCHAR 1ED0
ENCODING 7888
SWIDTH 800 0
DWIDTH 20 0
BBX 19 25 1 0
BITMAP
000300
000200
000600
01EC00
01B000
031800
000000
03F000
0FFC00
1F1F00
380780
700380
6001C0
E000C0
C000C0
C000E0
C000E0
C000C0
E000C0
E001C0
7001C0
780380
3C0F00
1FFE00
07F800
ENDCHAR
STARTCHAR 1ED1
ENCODING 7889
SWIDTH 800 0
DWIDTH 20 0
BBX 19 25 1 0
BITMAP
000300
000200
000600
01EC00
01B000
031800
000000
03F000
0FFC00
1F1F00
380780
700380
6001C0
E000C0
C000C0
C000E0
C000E0
C000C0
E000C0
E001C0
7001C0
780380
3C0F00
1FFE00
07F800
ENDCHAR
STARTCHAR 1ED2
ENCODING 7890
SWIDTH 800 0
DWIDTH 20 0
BBX 19 25 1 0
BITMAP
300000
100000
180000
0DE000
01B000
031800
000000
03F000
0FFC00
1F1F00
380780
700380
6001C0
E000C0
C000C0
C000E0
C000E0
C000C0
E000C0
E001C0
7001C0
780380
3C0F00
1FFE00
07F800
ENDCHAR
STARTCHAR 1ED3
ENCODING 7891
SWIDTH 800 0
DWIDTH 20 0
BBX 19 25 1 0
BITMAP
300000
100000
180000
0DE000
01B000
031800
000000
03F000
0FFC00
1F1F00
380780
700380
6001C0
E000C0
C000C0
C000E0
C000E0
C000C0
E000C0
E001C0
7001C0
780380
3C0F00
1FFE00
07F800
ENDCHAR
STARTCHAR 1ED4
ENCODING 7892
SWIDTH 800 0
DWIDTH 20 0
BBX 19 26 1 0
BITMAP
000400
000400
000C00
000C00
01EC00
01B000
031800
000000
03F000
0FFC00
1F1F00
380780
700380
6001C0
E000C0
C000C0
C000E0
C000E0
C000C0
E000C0
E001C0
7001C0
780380
3C0F00
1FFE00
07F800
ENDCHAR
STARTCHAR 1ED5
ENCODING 7893
SWIDTH 800 0
DWIDTH 20 0
BBX 19 26 1 0
BITMAP
000400
000400
000C00
000C00
01EC00
01B000
031800
000000
03F000
0FFC00
1F1F00
380780
700380
6001C0
E000C0
C000C0
C000E0
C000E0
C000C0
E000C0
E001C0
7001C0
780380
3C0F00
1FFE00
07F800
ENDCHAR
STARTCHAR 1ED6
ENCODING 7894
SWIDTH 800 0
DWIDTH 20 0
BBX 19 25 1 0
BITMAP
007A00
007E00
000000
01E000
01B000
031800
000000
03F000
0FFC00
1F1F00
380780
700380
6001C0
E000C0
C000C0
C000E0
C000E0
C000C0
E000C0
E001C0
7001C0
780380
3C0F00
1FFE00
07F800
ENDCHAR
STARTCHAR 1ED7
ENCODING 7895
SWIDTH 800 0
DWIDTH 20 0
BBX 19 25 1 0
BITMAP
007A00
007E00
000000
01E000
01B000
031800
000000
03F000
0FFC00
1F1F00
380780
700380
6001C0
E000C0
C000C0
C000E0
C000E0
C000C0
E000C0
E001C0
7001C0
780380
3C0F00
1FFE00
07F800
ENDCHAR
STARTCHAR 1ED8
ENCODING 7896
SWIDTH 800 0
DWIDTH 20 0
BBX 19 29 1 -7
BITMAP
01E000
01B000
031800
000000
03F000
0FFC00
1F1F00
380780
700380
6001C0
E000C0
C000C0
C000E0
C000E0
C000C0
E000C0
E001C0
7001C0
780380
3C0F00
1FFE00
07F800
000000
000000
000000
00C000
01E000
01E000
00C000
ENDCHAR
STARTCHAR 1ED9
ENCODING 7897
SWIDTH 800 0
DWIDTH 20 0
BBX 19 29 1 -7
BITMAP
01E000
01B000
031800
000000
03F000
0FFC00
1F1F00
380780
700380
6001C0
E000C0
C000C0
C000E0
C000E0
C000C0
E000C0
E001C0
7001C0
780380
3C0F00
1FFE00
07F800
000000
000000
000000
00C000
01E000
01E000
00C000
ENDCHAR
STARTCHAR 1EDA
ENCODING 7898
SWIDTH 800 0
DWIDTH 20 0
BBX 19 22 1 0
BITMAP
006000
006000
00C180
000100
03F300
0FFE00
1F1F00
380780
700380
6001C0
E000C0
C000C0
C000E0
C000E0
C000C0
E000C0
E001C0
7001C0
780380
3C0F00
1FFE00
07F800
ENDCHAR
STARTCHAR 1EDB
ENCODING 7899
SWIDTH 800 0
DWIDTH 20 0
BBX 19 22 1 0
BITMAP
006000
006000
00C180
000100
03F300
0FFE00
1F1F00
380780
700380
6001C0
E000C0
C000C0
C000E0
C000E0
C000C0
E000C0
E001C0
7001C0
780380
3C0F00
1FFE00
07F800
ENDCHAR
STARTCHAR 1EDC
ENCODING 7900
SWIDTH 800 0
DWIDTH 20 0
BBX 19 22 1 0
BITMAP
018000
00C000
004180
000100
03F300
0FFE00
1F1F00
380780
700380
6001C0
E000C0
C000C0
C000E0
C000E0
C000C0
E000C0
E001C0
7001C0
780380
3C0F00
1FFE00
07F800
ENDCHAR
STARTCHAR 1EDD
ENCODING 7901
SWIDTH 800 0
DWIDTH 20 0
BBX 19 22 1 0
BITMAP
018000
00C000
004180
000100
03F300
0FFE00
1F1F00
380780
700380
6001C0
E000C0
C000C0
C000E0
C000E0
C000C0
E000C0
E001C0
7001C0
780380
3C0F00
1FFE00
07F800
ENDCHAR
STARTCHAR 1EDE
ENCODING 7902
SWIDTH 800 0
DWIDTH 20 0
BBX 19 24 1 0
BITMAP
00C000
004000
00C000
00C000
00C180
000100
03F300
0FFE00
1F1F00
380780
700380
6001C0
E000C0
C000C0
C000E0
C000E0
C000C0
E000C0
E001C0
7001C0
780380
3C0F00
1FFE00
07F800
ENDCHAR
STARTCHAR 1EDF
ENCODING 7903
SWIDTH 800 0
DWIDTH 20 0
BBX 19 24 1 0
BITMAP
00C000
004000
00C000
00C000
00C180
000100
03F300
0FFE00
1F1F00
380780
700380
6001C0
E000C0
C000C0
C000E0
C000E0
C000C0
E000C0
E001C0
7001C0
780380
3C0F00
1FFE00
07F800
ENDCHAR
STARTCHAR 1EE0
ENCODING 7904
SWIDTH 800 0
DWIDTH 20 0
BBX 19 22 1 0
BITMAP
03F000
02F000
000180
000100
03F300
0FFE00
1F1F00
380780
700380
6001C0
E000C0
C000C0
C000E0
C000E0
C000C0
E000C0
E001C0
7001C0
780380
3C0F00
1FFE00
07F800
ENDCHAR
STARTCHAR 1EE1
ENCODING 7905
SWIDTH 800 0
DWIDTH 20 0
BBX 19 22 1 0
BITMAP
03F000
02F000
000180
000100
03F300
0FFE00
1F1F00
380780
700380
6001C0
E000C0
C000C0
C000E0
C000E0
C000C0
E000C0
E001C0
7001C0
780380
3C0F00
1FFE00
07F800
ENDCHAR
STARTCHAR 1EE2
ENCODING 7906
SWIDTH 800 0
DWIDTH 20 0
BBX 19 27 1 -7
BITMAP
000180
000100
03F300
0FFE00
1F1F00
380780
700380
6001C0
E000C0
C000C0
C000E0
C000E0
C000C0
E000C0
E001C0
7001C0
780380
3C0F00
1FFE00
07F800
000000
000000
000000
00C000
01E000
01E000
00C000
ENDCHAR
STARTCHAR 1EE3
ENCODING 7907
SWIDTH 800 0
DWIDTH 20 0
BBX 19 27 1 -7
BITMAP
000180
000100
03F300
0FFE00
1F1F00
380780
700380
6001C0
E000C0
C000C0
C000E0
C000E0
C000C0
E000C0
E001C0
7001C0
780380
3C0F00
1FFE00
07F800
000000
000000
000000
00C000
01E000
01E000
00C000
ENDCHAR
STARTCHAR 1EE4
ENCODING 7908
SWIDTH 480 0
DWIDTH 12 0
BBX 11 25 1 -7
BITMAP
C0E0
C0E0
C0E0
C0E0
C0E0
C0E0
C0E0
C0E0
C0E0
C0E0
C0E0
C0E0
C0E0
E0E0
E0C0
71C0
7F80
3F00
0000
0000
0000
0E00
0E00
0E00
0400
ENDCHAR
STARTCHAR 1EE5
ENCODING 7909
SWIDTH 480 0
DWIDTH 12 0
BBX 11 25 1 -7
BITMAP
C0E0
C0E0
C0E0
C0E0
C0E0
C0E0
C0E0
C0E0
C0E0
C0E0
C0E0
C0E0
C0E0
E0E0
E0C0
71C0
7F80
3F00
0000
0000
0000
0E00
0E00
0E00
0400
ENDCHAR
STARTCHAR 1EE6
ENCODING 7910
SWIDTH 480 0
DWIDTH 12 0
BBX 11 24 1 0
BITMAP
0400
0400
0400
0C00
0C00
0000
C0E0
C0E0
C0E0
C0E0
C0E0
C0E0
C0E0
C0E0
C0E0
C0E0
C0E0
C0E0
C0E0
E0E0
E0C0
71C0
7F80
3F00
ENDCHAR
STARTCHAR 1EE7
ENCODING 7911
SWIDTH 480 0
DWIDTH 12 0
BBX 11 24 1 0
BITMAP
0400
0400
0400
0C00
0C00
0000
C0E0
C0E0
C0E0
C0E0
C0E0
C0E0
C0E0
C0E0
C0E0
C0E0
C0E0
C0E0
C0E0
E0E0
E0C0
71C0
7F80
3F00
ENDCHAR
STARTCHAR 1EE8
ENCODING 7912
SWIDTH 480 0
DWIDTH 12 0
BBX 13 22 1 0
BITMAP
0300
0600
0C18
0010
C0F0
C0E0
C0E0
C0E0
C0E0
C0E0
C0E0
C0E0
C0E0
C0E0
C0E0
C0E0
C0E0
E0E0
E0C0
71C0
7F80
3F00
ENDCHAR
STARTCHAR 1EE9
ENCODING 7913
SWIDTH 480 0
DWIDTH 12 0
BBX 13 22 1 0
BITMAP
0300
0600
0C18
0010
C0F0
C0E0
C0E0
C0E0
C0E0
C0E0
C0E0
C0E0
C0E0
C0E0
C0E0
C0E0
C0E0
E0E0
E0C0
71C0
7F80
3F00
ENDCHAR
STARTCHAR 1EEA
ENCODING 7914
SWIDTH 480 0
DWIDTH 12 0
BBX 13 22 1 0
BITMAP
1800
0C00
0418
0010
C0F0
C0E0
C0E0
C0E0
C0E0
C0E0
C0E0
C0E0
C0E0
C0E0
C0E0
C0E0
C0E0
E0E0
E0C0
71C0
7F80
3F00
ENDCHAR
STARTCHAR 1EEB
ENCODING 7915
SWIDTH 480 0
DWIDTH 12 0
BBX 13 22 1 0
BITMAP
1800
0C00
0418
0010
C0F0
C0E0
C0E0
C0E0
C0E0
C0E0
C0E0
C0E0
C0E0
C0E0
C0E0
C0E0
C0E0
E0E0
E0C0
71C0
7F80
3F00
ENDCHAR
STARTCHAR 1EEC
ENCODING 7916
SWIDTH 480 0
DWIDTH 12 0
BBX 13 24 1 0
BITMAP
0400
0400
0400
0C00
0C18
0010
C0F0
C0E0
C0E0
C0E0
C0E0
C0E0
C0E0
C0E0
C0E0
C0E0
C0E0
C0E0
C0E0
E0E0
E0C0
71C0
7F80
3F00
ENDCHAR
STARTCHAR 1EED
ENCODING 7917
SWIDTH 480 0
DWIDTH 12 0
BBX 13 24 1 0
BITMAP
0400
0400
0400
0C00
0C18
0010
C0F0
C0E0
C0E0
C0E0
C0E0
C0E0
C0E0
C0E0
C0E0
C0E0
C0E0
C0E0
C0E0
E0E0
E0C0
71C0
7F80
3F00
ENDCHAR
STARTCHAR 1EEE
ENCODING 7918
SWIDTH 480 0
DWIDTH 12 0
BBX 13 22 1 0
BITMAP
3F00
2F00
0018
0010
C0F0
C0E0
C0E0
C0E0
C0E0
C0E0
C0E0
C0E0
C0E0
C0E0
C0E0
C0E0
C0E0
E0E0
E0C0
71C0
7F80
3F00
ENDCHAR
STARTCHAR 1EEF
ENCODING 7919
SWIDTH 480 0
DWIDTH 12 0
BBX 13 22 1 0
BITMAP
3F00
2F00
0018
0010
C0F0
C0E0
C0E0
C0E0
C0E0
C0E0
C0E0
C0E0
C0E0
C0E0
C0E0
C0E0
C0E0
E0E0
E0C0
71C0
7F80
3F00
ENDCHAR
STARTCHAR 1EF0
ENCODING 7920
SWIDTH 480 0
DWIDTH 12 0
BBX 13 27 1 -7
BITMAP
0018
0010
C0F0
C0E0
C0E0
C0E0
C0E0
C0E0
C0E0
C0E0
C0E0
C0E0
C0E0
C0E0
C0E0
E0E0
E0C0
71C0
7F80
3F00
0000
0000
0000
0E00
0E00
0E00
0400
ENDCHAR
STARTCHAR 1EF1
ENCODING 7921
SWIDTH 480 0
DWIDTH 12 0
BBX 13 27 1 -7
BITMAP
0018
0010
C0F0
C0E0
C0E0
C0E0
C0E0
C0E0
C0E0
C0E0
C0E0
C0E0
C0E0
C0E0
C0E0
E0E0
E0C0
71C0
7F80
3F00
0000
0000
0000
0E00
0E00
0E00
0400
ENDCHAR
STARTCHAR 1EF2
ENCODING 7922
SWIDTH 480 0
DWIDTH 12 0
BBX 11 22 1 0
BITMAP
1800
0C00
0400
0000
C0E0
C0E0
C0E0
C0E0
C0E0
C0E0
C0E0
C0E0
C0E0
E0C0
E0C0
73C0
3F80
1E00
0C00
0C00
0C00
0C00
ENDCHAR
STARTCHAR 1EF3
ENCODING 7923
SWIDTH 480 0
DWIDTH 12 0
BBX 11 22 1 0
BITMAP
1800
0C00
0400
0000
C0E0
C0E0
C0E0
C0E0
C0E0
C0E0
C0E0
C0E0
C0E0
E0C0
E0C0
73C0
3F80
1E00
0C00
0C00
0C00
0C00
ENDCHAR
STARTCHAR 1EF4
ENCODING 7924
SWIDTH 480 0
DWIDTH 12 0
BBX 11 25 1 -7
BITMAP
C0E0
C0E0
C0E0
C0E0
C0E0
C0E0
C0E0
C0E0
C0E0
E0C0
E0C0
73C0
3F80
1E00
0C00
0C00
0C00
0C00
0000
0000
0000
0C00
1E00
1E00
0C00
ENDCHAR
STARTCHAR 1EF5
ENCODING 7925
SWIDTH 480 0
DWIDTH 12 0
BBX 11 25 1 -7
BITMAP
C0E0
C0E0
C0E0
C0E0
C0E0
C0E0
C0E0
C0E0
C0E0
E0C0
E0C0
73C0
3F80
1E00
0C00
0C00
0C00
0C00
0000
0000
0000
0C00
1E00
1E00
0C00
ENDCHAR
STARTCHAR 1EF6
ENCODING 7926
SWIDTH 480 0
DWIDTH 12 0
BBX 11 24 1 0
BITMAP
0400
0400
0C00
0C00
0C00
0000
C0E0
C0E0
C0E0
C0E0
C0E0
C0E0
C0E0
C0E0
C0E0
E0C0
E0C0
73C0
3F80
1E00
0C00
0C00
0C00
0C00
ENDCHAR
STARTCHAR 1EF7
ENCODING 7927
SWIDTH 480 0
DWIDTH 12 0
BBX 11 24 1 0
BITMAP
0400
0400
0C00
0C00
0C00
0000
C0E0
C0E0
C0E0
C0E0
C0E0
C0E0
C0E0
C0E0
C0E0
E0C0
E0C0
73C0
3F80
1E00
0C00
0C00
0C00
0C00
ENDCHAR
STARTCHAR 1EF8
ENCODING 7928
SWIDTH 480 0
DWIDTH 12 0
BBX 11 22 1 0
BITMAP
3F00
2F00
0000
0000
C0E0
C0E0
C0E0
C0E0
C0E0
C0E0
C0E0
C0E0
C0E0
E0C0
E0C0
73C0
3F80
1E00
0C00
0C00
0C00
0C00
ENDCHAR
STARTCHAR 1EF9
ENCODING 7929
SWIDTH 480 0
DWIDTH 12 0
BBX 11 22 1 0
BITMAP
3F00
2F00
0000
0000
C0E0
C0E0
C0E0
C0E0
C0E0
C0E0
C0E0
C0E0
C0E0
E0C0
E0C0
73C0
3F80
1E00
0C00
0C00
0C00
0C00
ENDCHAR
STARTCHAR 2013
ENCODING 8211
SWIDTH 560 0
DWIDTH 14 0
BBX 12 2 1 6
BITMAP
FFF0
FFF0
ENDCHAR
STARTCHAR 2014
ENCODING 8212
SWIDTH 800 0
DWIDTH 20 0
BBX 18 2 1 6
BITMAP
FFFFC0
FFFFC0
ENDCHAR
STARTCHAR 2018
ENCODING 8216
SWIDTH 200 0
DWIDTH 5 0
BBX 3 5 2 13
BITMAP
60
40
C0
C0
C0
ENDCHAR
STARTCHAR 2019
ENCODING 8217
SWIDTH 200 0
DWIDTH 5 0
BBX 4 5 1 13
BITMAP
70
60
60
40
C0
ENDCHAR
STARTCHAR 201A
ENCODING 8218
SWIDTH 200 0
DWIDTH 5 0
BBX 3 5 1 -3
BITMAP
60
60
60
40
C0
ENDCHAR
STARTCHAR 201C
ENCODING 8220
SWIDTH 400 0
DWIDTH 10 0
BBX 7 5 2 13
BITMAP
66
66
44
CC
CC
ENDCHAR
STARTCHAR 201D
ENCODING 8221
SWIDTH 400 0
DWIDTH 10 0
BBX 8 5 1 13
BITMAP
77
66
66
46
C4
ENDCHAR
STARTCHAR 201E
ENCODING 8222
SWIDTH 400 0
DWIDTH 10 0
BBX 8 5 1 -3
BITMAP
63
63
66
46
C6
ENDCHAR
STARTCHAR 2020
ENCODING 8224
SWIDTH 400 0
DWIDTH 10 0
BBX 8 12 1 6
BITMAP
18
18
18
FF
18
18
18
18
18
18
18
18
ENDCHAR
STARTCHAR 2021
ENCODING 8225
SWIDTH 400 0
DWIDTH 10 0
BBX 8 12 1 6
BITMAP
18
18
18
FF
18
18
18
18
FF
18
18
18
ENDCHAR
STARTCHAR 2022
ENCODING 8226
SWIDTH 280 0
DWIDTH 7 0
BBX 6 5 1 5
BITMAP
78
FC
FC
78
30
ENDCHAR
STARTCHAR 2026
ENCODING 8230
SWIDTH 640 0
DWIDTH 16 0
BBX 15 3 1 0
BITMAP
739C
F39E
739C
ENDCHAR
STARTCHAR 2030
ENCODING 8240
SWIDTH 1280 0
DWIDTH 32 0
BBX 30 18 1 0
BITMAP
1C018000
7F030000
63830000
C1860000
C18C0000
E18C0000
63180000
3F300000
08600000
00600000
00C7C1F0
018FE3F8
01986718
0318360C
0618360C
0618671C
0C0FE3F8
1807C1F0
ENDCHAR
STARTCHAR 2039
ENCODING 8249
SWIDTH 360 0
DWIDTH 9 0
BBX 7 11 1 2
BITMAP
0C
1C
38
30
60
E0
70
30
18
1C
0E
ENDCHAR
STARTCHAR 203A
ENCODING 8250
SWIDTH 360 0
DWIDTH 9 0
BBX 6 11 2 2
BITMAP
C0
60
70
30
18
1C
18
30
60
E0
C0
ENDCHAR
STARTCHAR 2044
ENCODING 8260
SWIDTH 640 0
DWIDTH 16 0
BBX 14 18 2 0
BITMAP
000C
0018
0030
0060
0060
00C0
0180
0180
0300
0600
0E00
0C00
1800
3000
3000
6000
C000
C000
ENDCHAR
STARTCHAR 20AC
ENCODING 8364
SWIDTH 640 0
DWIDTH 16 0
BBX 14 18 1 0
BITMAP
003C
01FC
07FC
0F00
0E00
1C00
1800
FFF0
FFF0
3800
FFF0
FFF0
1C00
1C00
0E00
0780
03FC
00FC
ENDCHAR
STARTCHAR 2122
ENCODING 8482
SWIDTH 800 0
DWIDTH 20 0
BBX 18 10 1 8
BITMAP
FE00C0
FF8CC0
31CEC0
31FBC0
31B9C0
3188C0
3188C0
3188C0
3188C0
3188C0
ENDCHAR
STARTCHAR 2190
ENCODING 8592
SWIDTH 800 0
DWIDTH 20 0
BBX 17 12 2 3
BITMAP
040000
0C0000
180000
300000
600000
FFFF80
FFFF80
600000
300000
180000
0C0000
040000
ENDCHAR
STARTCHAR 2191
ENCODING 8593
SWIDTH 560 0
DWIDTH 14 0
BBX 11 18 2 0
BITMAP
0400
0E00
1F00
3F80
6DC0
CCE0
8C60
0C00
0C00
0C00
0C00
0C00
0C00
0C00
0C00
0C00
0C00
0C00
ENDCHAR
STARTCHAR 2192
ENCODING 8594
SWIDTH 800 0
DWIDTH 20 0
BBX 18 12 1 3
BITMAP
000800
001C00
000E00
000700
000380
FFFFC0
FFFFC0
000380
000700
000E00
001C00
000800
ENDCHAR
STARTCHAR 2193
ENCODING 8595
SWIDTH 560 0
DWIDTH 14 0
BBX 12 18 1 -1
BITMAP
0600
0600
0600
0600
0600
0600
0600
0600
0600
0600
0600
4600
E630
7660
3EC0
1F80
0F00
0600
ENDCHAR
STARTCHAR 2194
ENCODING 8596
SWIDTH 880 0
DWIDTH 22 0
BBX 19 12 2 3
BITMAP
040400
0C0E00
180700
300380
6001C0
FFFFE0
FFFFE0
6001C0
300380
180700
0C0E00
040400
ENDCHAR
STARTCHAR 2195
ENCODING 8597
SWIDTH 600 0
DWIDTH 15 0
BBX 13 18 1 -1
BITMAP
0200
0780
0FC0
1BE0
7370
E318
4300
0300
0300
0300
0300
0300
4318
7338
3B70
1FC0
0F80
0300
ENDCHAR
STARTCHAR 2196
ENCODING 8598
SWIDTH 640 0
DWIDTH 16 0
BBX 14 13 1 2
BITMAP
FF80
F000
F800
DC00
CE00
C700
C380
C1C0
00E0
0070
0038
001C
0008
ENDCHAR
STARTCHAR 2197
ENCODING 8599
SWIDTH 640 0
DWIDTH 16 0
BBX 14 13 1 2
BITMAP
07FC
001C
003C
00EC
01CC
038C
070C
0E0C
1C00
3800
7000
E000
4000
ENDCHAR
STARTCHAR 2198
ENCODING 8600
SWIDTH 640 0
DWIDTH 16 0
BBX 13 13 2 2
BITMAP
C000
E000
7000
3800
1C00
0E18
0718
0398
01D8
00F8
0078
0FF8
0FF8
ENDCHAR
STARTCHAR 2199
ENCODING 8601
SWIDTH 640 0
DWIDTH 16 0
BBX 13 13 1 2
BITMAP
0018
0038
0070
00E0
00C0
C180
C700
C600
CC00
D800
F000
FF80
FF80
ENDCHAR
STARTCHAR 2202
ENCODING 8706
SWIDTH 560 0
DWIDTH 14 0
BBX 12 18 1 0
BITMAP
1C00
1E00
0780
03C0
01C0
00E0
0060
1F70
3FF0
78F0
7070
E030
E070
E070
6060
70E0
3FC0
1F80
ENDCHAR
STARTCHAR 2205
ENCODING 8709
SWIDTH 720 0
DWIDTH 18 0
BBX 16 16 1 1
BITMAP
0180
0FF3
181E
300C
601E
4032
4063
C0C3
C183
4303
4602
6C06
380C
3818
6FF0
4080
ENDCHAR
STARTCHAR 220F
ENCODING 8719
SWIDTH 600 0
DWIDTH 15 0
BBX 13 21 1 -3
BITMAP
FFF8
FFF8
3060
3060
3060
3060
3060
3060
3060
3060
3060
3060
3060
3060
3060
3060
3060
3060
3060
3060
3060
ENDCHAR
STARTCHAR 2211
ENCODING 8721
SWIDTH 480 0
DWIDTH 12 0
BBX 10 21 1 -3
BITMAP
FFC0
FFC0
6000
7000
3000
3800
1800
1C00
0C00
0600
0600
0E00
0C00
1C00
1800
3000
3000
6000
E000
FFC0
FFC0
ENDCHAR
STARTCHAR 2212
ENCODING 8722
SWIDTH 520 0
DWIDTH 13 0
BBX 12 2 1 7
BITMAP
FFF0
FFF0
ENDCHAR
STARTCHAR 221A
ENCODING 8730
SWIDTH 640 0
DWIDTH 16 0
BBX 15 21 1 -3
BITMAP
007E
007E
0060
0060
00C0
00C0
00C0
01C0
0180
0180
E180
6300
6300
7300
3700
3600
3600
1E00
1C00
1C00
0C00
ENDCHAR
STARTCHAR 221E
ENCODING 8734
SWIDTH 800 0
DWIDTH 20 0
BBX 18 8 1 5
BITMAP
3E0F00
7F3F80
61F180
C0E0C0
C0C0C0
41E0C0
773B80
3E1F00
ENDCHAR
STARTCHAR 222B
ENCODING 8747
SWIDTH 480 0
DWIDTH 12 0
BBX 10 21 1 -3
BITMAP
01C0
03C0
0300
0700
0600
0600
0600
0600
0600
0C00
0C00
0C00
0C00
0C00
1C00
1800
1800
1800
3800
F000
E000
ENDCHAR
STARTCHAR 2248
ENCODING 8776
SWIDTH 520 0
DWIDTH 13 0
BBX 11 8 1 4
BITMAP
FE00
FFE0
01E0
0000
0000
FC00
FFE0
03E0
ENDCHAR
STARTCHAR 2260
ENCODING 8800
SWIDTH 520 0
DWIDTH 13 0
BBX 12 12 1 2
BITMAP
0180
0300
FFF0
FFF0
0600
0600
0C00
FFF0
FFF0
1800
1800
1800
ENDCHAR
STARTCHAR 2264
ENCODING 8804
SWIDTH 520 0
DWIDTH 13 0
BBX 12 10 1 3
BITMAP
0070
07F0
7F00
F000
FC00
1FE0
00F0
0000
0000
FFF0
ENDCHAR
STARTCHAR 2265
ENCODING 8805
SWIDTH 520 0
DWIDTH 13 0
BBX 12 10 1 3
BITMAP
E000
FE00
0FE0
00F0
03F0
7F80
F000
0000
0000
FFF0
ENDCHAR
STARTCHAR 25CA
ENCODING 9674
SWIDTH 480 0
DWIDTH 12 0
BBX 9 14 2 2
BITMAP
1C00
3C00
3600
6600
6300
C300
C180
C180
C300
6300
6600
3600
3C00
1C00
ENDCHAR
ENDFONT
